{
.appVersion = "118";
DisplayStrings = (
"AÄBCDEF/space GHIJKMNO/space ÖPQRSTUÜVWX/space \012\0120123456789\012\012aäbctdefghijklmnoöpqrst'g\012Ouüvwxyz\012.,-;?!_#",
"Oder/space gehoörten/space die/space Schritte/space hinter/space ihm/space zu/space einem/space der/space unzähligen/space Gesetzeshüter/space dieser/space Stadt,/space und/space die/space stählerne/space Acht/space um/space seine/space Handgelenke/space würde/space gleich/space zuschnappen.",
"ft\012/space",
"/emdash",
"/endash",
_,
"?",
"¿",
"·",
"/bullet",
L,
N,
"//",
"/backslash",
"[",
"]",
"#",
lz,
y,
v,
K,
"!",
"¡",
"/quotecomb \"",
"-",
"/strokeshortcomb",
"/slashlongcomb",
"¯",
"/quotecomb/istrokecomp",
"/quotecomb",
"/quotecomb \"",
"/unbenannt",
"\"",
"'",
"/guilsinglleft",
"/guilsinglright",
x,
t,
"/quoteleft",
"/quoteright",
"(/space",
O,
"(",
")",
f,
"{",
"}",
"*",
".",
"/dieresiscomb",
"/dotaccent",
"/dotaccentcomb",
"0",
"/fraction",
"4",
u,
rh,
zw,
"/space @",
o,
q,
a,
"@",
"/quotedblright",
"/gravecomb",
"/acutecomb",
"Á",
"Ä",
"À",
"É",
"Ë",
"È",
"Í",
"Ï",
"Ì",
"Ú",
"Ò",
"Ó",
"/Wacute",
"Ù",
"/Ydieresis",
"/Ygrave",
"/Wdieresis",
"/Wgrave",
"Ý",
"Õ",
"/OE",
E,
P,
"Þ",
V,
"Æ",
"Ê",
"Ã",
A,
"Ø",
"ã",
"eæ",
"eæ",
"/oe",
p,
"þ",
i,
"í",
"ì",
"/istrokecomp",
"ï",
"ä",
"ö",
"`",
"´",
"/hungarumlaut",
"Ð",
"<",
"«",
"»",
">",
"/minus",
"^",
"/acutecomb",
"â",
"à",
"ê",
"ô",
"ø",
"ú",
"û",
"ù",
"/ycircumflex",
"ý",
"/wgrave",
"/wdieresis",
"/wcircumflex",
"/wacute",
"/ygrave",
"/circumflexcomb",
"ó",
"ò",
"Û",
"/Ycircumflex",
"Î",
"/Wcircumflex",
"î",
"/circumflex",
"/caron",
"Ô",
"Â",
"é",
"/space n",
r,
"/quotecomb",
"¨",
S
);
copyright = "Copyright © 2022 by Florian Hannich.";
date = "2022-03-14 10:48:53 +0000";
designer = "Florian Hannich";
designerURL = "https://florianhannich.com";
familyName = Base;
featurePrefixes = (
{
automatic = 1;
code = "languagesystem DFLT dflt;\012";
name = Languagesystems;
}
);
fontMaster = (
{
alignmentZones = (
"{716, 15}",
"{517, 13}",
"{0, -15}",

glyphs = (
{
glyphname = A;
lastChange = "2022-03-25 10:27:10 +0000";
layers = (
{
guideLines = (
{
position = "{-172, 470}";
}
);
layerId = "9DF75A15-0AF9-4389-BE6D-DBD1DB18A6A2";
paths = (
{
closed = 1;
nodes = (
"614 0 LINE",
"352 715 LINE",
"270 715 LINE",
"8 0 LINE",
"89 0 LINE",
"167 220 LINE",
"455 220 LINE",
"533 0 LINE"
);
},
{
closed = 1;
nodes = (
"261 470 LINE SMOOTH",
"274 506 OFFCURVE",
"295 571 OFFCURVE",
"311 624 CURVE",
"327 571 OFFCURVE",
"348 506 OFFCURVE",
"361 470 CURVE SMOOTH",
"427 291 LINE",
"195 291 LINE"
);
}
);
width = 622;
}
);
leftMetricsKey = V;
rightMetricsKey = V;
unicode = 0041;
},
{
glyphname = AE;
lastChange = "2022-04-13 10:00:41 +0000";
layers = (
{
components = (
{
name = E;
transform = "{1, 0, 0, 1, 305, 0}";
}
);
guideLines = (
{
position = "{167, 645}";
}
);
layerId = "9DF75A15-0AF9-4389-BE6D-DBD1DB18A6A2";
paths = (
{
closed = 1;
nodes = (
"89 0 LINE",
"167 220 LINE",
"447 220 LINE",
"447 291 LINE",
"195 291 LINE",
"261 470 LINE SMOOTH",
"274 506 OFFCURVE",
"302 592 OFFCURVE",
"318 645 CURVE",
"381 645 LINE",
"381 715 LINE",
"270 715 LINE",
"8 0 LINE"
);
}
);
width = 876;
}
);
leftMetricsKey = A;
rightMetricsKey = E;
unicode = 00C6;
},
{
glyphname = B;
lastChange = "2022-03-25 10:28:07 +0000";
layers = (
{
guideLines = (
{
position = "{-33, 327}";
},
{
angle = 90;
position = "{623, 599}";
}
);
layerId = "9DF75A15-0AF9-4389-BE6D-DBD1DB18A6A2";
paths = (
{
closed = 1;
nodes = (
"407 0 LINE SMOOTH",
"537 0 OFFCURVE",
"610 94 OFFCURVE",
"610 208 CURVE SMOOTH",
"610 300 OFFCURVE",
"559 359 OFFCURVE",
"476 381 CURVE",
"543 404 OFFCURVE",
"584 457 OFFCURVE",
"584 531 CURVE SMOOTH",
"584 632 OFFCURVE",
"517 715 OFFCURVE",
"403 715 CURVE SMOOTH",
"75 715 LINE",
"75 0 LINE"
);
},
{
closed = 1;
nodes = (
"160 341 LINE",
"385 341 LINE SMOOTH",
"466 341 OFFCURVE",
"525 280 OFFCURVE",
"525 207 CURVE SMOOTH",
"525 134 OFFCURVE",
"478 74 OFFCURVE",
"394 74 CURVE SMOOTH",
"160 74 LINE"
);
},
{
closed = 1;
nodes = (
"160 640 LINE",
"386 641 LINE SMOOTH",
"456 641 OFFCURVE",
"499 591 OFFCURVE",
"499 528 CURVE SMOOTH",
"499 467 OFFCURVE",
"449 416 OFFCURVE",
"377 416 CURVE SMOOTH",
"160 416 LINE"
);
}
);
width = 645;
}
);
leftMetricsKey = H;
rightMetricsKey = O;
unicode = 0042;
},
{
glyphname = C;
lastChange = "2022-03-25 10:28:07 +0000";
layers = (
{
layerId = "9DF75A15-0AF9-4389-BE6D-DBD1DB18A6A2";
paths = (
{
closed = 1;
nodes = (
"550 -15 OFFCURVE",
"656 93 OFFCURVE",
"683 243 CURVE",
"594 243 LINE",
"576 135 OFFCURVE",
"503 60 OFFCURVE",
"382 60 CURVE SMOOTH",
"216 60 OFFCURVE",
"123 195 OFFCURVE",
"123 356 CURVE SMOOTH",
"123 519 OFFCURVE",
"213 656 OFFCURVE",
"380 656 CURVE SMOOTH",
"490 656 OFFCURVE",
"566 591 OFFCURVE",
"588 494 CURVE",
"681 494 LINE",
"648 633 OFFCURVE",
"543 731 OFFCURVE",
"378 731 CURVE SMOOTH",
"166 731 OFFCURVE",
"35 563 OFFCURVE",
"35 357 CURVE SMOOTH",
"35 152 OFFCURVE",
"166 -15 OFFCURVE",
"378 -15 CURVE SMOOTH"
);
}
);
width = 718;
}
);
leftMetricsKey = O;
rightMetricsKey = O;
unicode = 0043;
},
{
glyphname = D;
lastChange = "2022-03-25 10:28:07 +0000";
layers = (
{
layerId = "9DF75A15-0AF9-4389-BE6D-DBD1DB18A6A2";
paths = (
{
closed = 1;
nodes = (
"343 0 LINE SMOOTH",
"547 0 OFFCURVE",
"671 161 OFFCURVE",
"671 358 CURVE SMOOTH",
"671 555 OFFCURVE",
"550 717 OFFCURVE",
"343 716 CURVE SMOOTH",
"75 715 LINE",
"75 0 LINE"
);
},
{
closed = 1;
nodes = (
"160 641 LINE",
"337 641 LINE SMOOTH",
"495 641 OFFCURVE",
"583 510 OFFCURVE",
"583 357 CURVE SMOOTH",
"583 206 OFFCURVE",
"492 74 OFFCURVE",
"340 74 CURVE SMOOTH",
"160 74 LINE"
);
}
);
width = 706;
}
);
leftMetricsKey = H;
rightMetricsKey = O;
unicode = 0044;
},
{
glyphname = E;
lastChange = "2022-04-13 11:06:53 +0000";
layers = (
{
layerId = "9DF75A15-0AF9-4389-BE6D-DBD1DB18A6A2";
paths = (
{
closed = 1;
nodes = (
"536 1 LINE",
"536 72 LINE",
"260 72 LINE SMOOTH",
"227 72 OFFCURVE",
"160 70 OFFCURVE",
"160 70 CURVE",
"160 326 LINE",
"160 326 OFFCURVE",
"227 325 OFFCURVE",
"260 325 CURVE SMOOTH",
"516 325 LINE",
"516 396 LINE",
"260 396 LINE SMOOTH",
"227 396 OFFCURVE",
"160 395 OFFCURVE",
"160 395 CURVE",
"160 645 LINE",
"160 645 OFFCURVE",
"227 644 OFFCURVE",
"260 644 CURVE SMOOTH",
"526 644 LINE",
"526 715 LINE",
"75 715 LINE",
"75 1 LINE"
);
}
);
width = 574;
}
);
leftMetricsKey = H;
rightMetricsKey = o;
unicode = 0045;
},
{
glyphname = F;
lastChange = "2022-04-13 11:06:53 +0000";
layers = (
{
layerId = "9DF75A15-0AF9-4389-BE6D-DBD1DB18A6A2";
paths = (
{
closed = 1;
nodes = (
"160 0 LINE",
"160 326 LINE",
"160 326 OFFCURVE",
"227 326 OFFCURVE",
"260 326 CURVE SMOOTH",
"486 326 LINE",
"486 397 LINE",
"260 397 LINE SMOOTH",
"227 397 OFFCURVE",
"160 395 OFFCURVE",
"160 395 CURVE",
"160 646 LINE",
"160 646 OFFCURVE",
"227 644 OFFCURVE",
"260 644 CURVE SMOOTH",
"526 644 LINE",
"526 715 LINE",
"75 715 LINE",
"75 0 LINE"
);
}
);
width = 564;
}
);
leftMetricsKey = H;
rightMetricsKey = o;
unicode = 0046;
},
{
glyphname = G;
lastChange = "2022-04-13 11:05:48 +0000";
layers = (
{
guideLines = (
{
position = "{841, 494}";
}
);
layerId = "9DF75A15-0AF9-4389-BE6D-DBD1DB18A6A2";
paths = (
{
closed = 1;
nodes = (
"480 -15 OFFCURVE",
"591 49 OFFCURVE",
"623 145 CURVE",
"623 145 OFFCURVE",
"623 0 OFFCURVE",
"623 0 CURVE",
"694 0 LINE",
"694 375 LINE",
"389 375 LINE",
"389 304 LINE",
"506 304 LINE SMOOTH",
"542 304 OFFCURVE",
"594 307 OFFCURVE",
"603 307 CURVE",
"590 169 OFFCURVE",
"502 60 OFFCURVE",
"378 60 CURVE SMOOTH",
"219 60 OFFCURVE",
"123 197 OFFCURVE",
"123 356 CURVE SMOOTH",
"123 517 OFFCURVE",
"218 655 OFFCURVE",
"378 655 CURVE SMOOTH",
"493 655 OFFCURVE",
"558 589 OFFCURVE",
"587 494 CURVE",
"677 494 LINE",
"640 632 OFFCURVE",
"542 730 OFFCURVE",
"378 730 CURVE SMOOTH",
"167 730 OFFCURVE",
"35 563 OFFCURVE",
"35 357 CURVE SMOOTH",
"35 152 OFFCURVE",
"157 -15 OFFCURVE",
"368 -15 CURVE SMOOTH"
);
}
);
width = 769;
}
);
leftMetricsKey = O;
rightMetricsKey = H;
unicode = 0047;
},
{
glyphname = H;
lastChange = "2022-03-25 10:06:31 +0000";
layers = (
{
layerId = "9DF75A15-0AF9-4389-BE6D-DBD1DB18A6A2";
paths = (
{
closed = 1;
nodes = (
"637 0 LINE",
"637 715 LINE",
"552 715 LINE",
"552 402 LINE",
"552 402 OFFCURVE",
"501 404 OFFCURVE",
"465 404 CURVE SMOOTH",
"251 404 LINE SMOOTH",
"215 404 OFFCURVE",
"160 402 OFFCURVE",
"160 402 CURVE",
"160 715 LINE",
"75 715 LINE",
"75 0 LINE",
"160 0 LINE",
"160 335 LINE",
"160 335 OFFCURVE",
"215 333 OFFCURVE",
"251 333 CURVE SMOOTH",
"465 333 LINE SMOOTH",
"501 333 OFFCURVE",
"552 335 OFFCURVE",
"552 335 CURVE",
"552 0 LINE"
);
}
);
width = 712;
}
);
unicode = 0048;
},
{
glyphname = I;
lastChange = "2022-03-25 10:27:10 +0000";
layers = (
{
layerId = "9DF75A15-0AF9-4389-BE6D-DBD1DB18A6A2";
paths = (
{
closed = 1;
nodes = (
"160 0 LINE",
"160 715 LINE",
"75 715 LINE",
"75 0 LINE"
);
}
);
width = 235;
}
);
leftMetricsKey = H;
rightMetricsKey = H;
unicode = 0049;
},
{
glyphname = J;
lastChange = "2022-03-25 10:27:10 +0000";
layers = (
{
layerId = "9DF75A15-0AF9-4389-BE6D-DBD1DB18A6A2";
paths = (
{
closed = 1;
nodes = (
"356 -16 OFFCURVE",
"424 76 OFFCURVE",
"424 211 CURVE SMOOTH",
"425 715 LINE",
"340 715 LINE",
"340 198 LINE SMOOTH",
"340 109 OFFCURVE",
"307 53 OFFCURVE",
"217 53 CURVE SMOOTH",
"127 53 OFFCURVE",
"93 111 OFFCURVE",
"93 191 CURVE",
"8 191 LINE",
"8 78 OFFCURVE",
"78 -16 OFFCURVE",
"217 -16 CURVE SMOOTH"
);
}
);
width = 500;
}
);
leftMetricsKey = V;
rightMetricsKey = H;
unicode = 004A;
},
{
glyphname = K;
lastChange = "2022-03-25 10:11:17 +0000";
layers = (
{
layerId = "9DF75A15-0AF9-4389-BE6D-DBD1DB18A6A2";
paths = (
{
closed = 1;
nodes = (
"160 0 LINE",
"160 251 LINE",
"283 377 LINE",
"557 1 LINE",
"651 1 LINE",
"336 431 LINE",
"616 716 LINE",
"510 716 LINE",
"159 360 LINE",
"160 717 LINE",
"76 717 LINE",
"75 0 LINE"
);
}
);
width = 651;
}
);
leftMetricsKey = H;
unicode = 004B;
},
{
glyphname = L;
lastChange = "2022-03-25 10:27:10 +0000";
layers = (
{
layerId = "9DF75A15-0AF9-4389-BE6D-DBD1DB18A6A2";
paths = (
{
closed = 1;
nodes = (
"525 0 LINE",
"525 75 LINE",
"260 75 LINE SMOOTH",
"227 75 OFFCURVE",
"160 73 OFFCURVE",
"160 73 CURVE",
"160 715 LINE",
"75 715 LINE",
"75 0 LINE"
);
}
);
width = 533;
}
);
leftMetricsKey = H;
rightMetricsKey = V;
unicode = 004C;
},
{
glyphname = M;
lastChange = "2022-03-25 10:27:10 +0000";
layers = (
{
guideLines = (
{
position = "{-161, 441}";
}
);
layerId = "9DF75A15-0AF9-4389-BE6D-DBD1DB18A6A2";
paths = (
{
closed = 1;
nodes = (
"496 0 LINE",
"690 441 LINE SMOOTH",
"701 465 OFFCURVE",
"723 517 OFFCURVE",
"744 570 CURVE",
"744 0 LINE",
"829 0 LINE",
"829 715 LINE",
"730 715 LINE",
"518 240 LINE SMOOTH",
"500 199 OFFCURVE",
"475 136 OFFCURVE",
"455 85 CURVE",
"435 136 OFFCURVE",
"410 199 OFFCURVE",
"392 240 CURVE SMOOTH",
"180 715 LINE",
"75 715 LINE",
"75 0 LINE",
"160 0 LINE",
"160 586 LINE",
"183 528 OFFCURVE",
"208 468 OFFCURVE",
"220 441 CURVE SMOOTH",
"414 0 LINE"
);
}
);
width = 904;
}
);
leftMetricsKey = H;
rightMetricsKey = H;
unicode = 004D;
},
{
glyphname = N;
lastChange = "2022-03-25 08:15:25 +0000";
layers = (
{
guideLines = (
{
position = "{-108, 454}";
},
{
position = "{-52, 238}";
}
);
layerId = "9DF75A15-0AF9-4389-BE6D-DBD1DB18A6A2";
paths = (
{
closed = 1;
nodes = (
"607 0 LINE",
"607 715 LINE",
"522 715 LINE",
"522 132 LINE",
"501 170 OFFCURVE",
"479 209 OFFCURVE",
"461 238 CURVE SMOOTH",
"160 715 LINE",
"75 715 LINE",
"75 0 LINE",
"160 0 LINE",
"160 584 LINE",
"185 538 OFFCURVE",
"213 489 OFFCURVE",
"235 454 CURVE SMOOTH",
"522 0 LINE"
);
}
);
width = 682;
}
);
leftMetricsKey = H;
rightMetricsKey = H;
unicode = 004E;
},
{
glyphname = O;
lastChange = "2022-03-25 10:28:05 +0000";
layers = (
{
layerId = "9DF75A15-0AF9-4389-BE6D-DBD1DB18A6A2";
paths = (
{
closed = 1;
nodes = (
"590 -15 OFFCURVE",
"720 152 OFFCURVE",
"720 357 CURVE SMOOTH",
"720 563 OFFCURVE",
"593 730 OFFCURVE",
"378 730 CURVE SMOOTH",
"167 730 OFFCURVE",
"35 563 OFFCURVE",
"35 357 CURVE SMOOTH",
"35 152 OFFCURVE",
"167 -15 OFFCURVE",
"378 -15 CURVE SMOOTH"
);
},
{
closed = 1;
nodes = (
"123 517 OFFCURVE",
"215 655 OFFCURVE",
"377 655 CURVE SMOOTH",
"544 655 OFFCURVE",
"633 517 OFFCURVE",
"633 356 CURVE SMOOTH",
"633 198 OFFCURVE",
"540 60 OFFCURVE",
"377 60 CURVE SMOOTH",
"216 60 OFFCURVE",
"123 198 OFFCURVE",
"123 356 CURVE SMOOTH"
);
}
);
width = 755;
}
);
unicode = 004F;
},
{
glyphname = P;
lastChange = "2022-03-25 10:28:07 +0000";
layers = (
{
layerId = "9DF75A15-0AF9-4389-BE6D-DBD1DB18A6A2";
paths = (
{
closed = 1;
nodes = (
"402 279 LINE SMOOTH",
"527 279 OFFCURVE",
"603 376 OFFCURVE",
"603 497 CURVE SMOOTH",
"603 618 OFFCURVE",
"529 715 OFFCURVE",
"402 715 CURVE SMOOTH",
"75 715 LINE",
"75 0 LINE",
"160 0 LINE",
"160 279 LINE"
);
},
{
closed = 1;
nodes = (
"160 644 LINE",
"392 644 LINE SMOOTH",
"475 644 OFFCURVE",
"517 577 OFFCURVE",
"517 496 CURVE SMOOTH",
"517 416 OFFCURVE",
"472 349 OFFCURVE",
"392 349 CURVE SMOOTH",
"160 350 LINE"
);
}
);
width = 638;
}
);
leftMetricsKey = H;
rightMetricsKey = O;
unicode = 0050;
},
{
glyphname = Thorn;
lastChange = "2022-04-13 09:57:34 +0000";
layers = (
{
layerId = "9DF75A15-0AF9-4389-BE6D-DBD1DB18A6A2";
paths = (
{
closed = 1;
nodes = (
"160 0 LINE",
"160 165 LINE",
"402 165 LINE SMOOTH",
"527 165 OFFCURVE",
"603 262 OFFCURVE",
"603 383 CURVE SMOOTH",
"603 504 OFFCURVE",
"529 601 OFFCURVE",
"402 601 CURVE SMOOTH",
"160 601 LINE",
"160 715 LINE",
"75 715 LINE",
"75 0 LINE"
);
},
{
closed = 1;
nodes = (
"160 530 LINE",
"392 530 LINE SMOOTH",
"475 530 OFFCURVE",
"517 463 OFFCURVE",
"517 382 CURVE SMOOTH",
"517 302 OFFCURVE",
"472 235 OFFCURVE",
"392 235 CURVE SMOOTH",
"160 236 LINE"
);
}
);
width = 638;
}
);
leftMetricsKey = P;
rightMetricsKey = P;
unicode = 00DE;
},
{
glyphname = Q;
lastChange = "2022-03-25 10:28:07 +0000";
layers = (
{
layerId = "9DF75A15-0AF9-4389-BE6D-DBD1DB18A6A2";
paths = (
{
closed = 1;
nodes = (
"473 167 LINE",
"378 167 LINE",
"554 -57 LINE",
"649 -57 LINE"
);
},
{
closed = 1;
nodes = (
"590 -15 OFFCURVE",
"720 152 OFFCURVE",
"720 357 CURVE SMOOTH",
"720 563 OFFCURVE",
"593 730 OFFCURVE",
"378 730 CURVE SMOOTH",
"167 730 OFFCURVE",
"35 563 OFFCURVE",
"35 357 CURVE SMOOTH",
"35 152 OFFCURVE",
"167 -15 OFFCURVE",
"378 -15 CURVE SMOOTH"
);
},
{
closed = 1;
nodes = (
"123 517 OFFCURVE",
"215 655 OFFCURVE",
"377 655 CURVE SMOOTH",
"544 655 OFFCURVE",
"633 517 OFFCURVE",
"633 356 CURVE SMOOTH",
"633 198 OFFCURVE",
"540 60 OFFCURVE",
"377 60 CURVE SMOOTH",
"216 60 OFFCURVE",
"123 198 OFFCURVE",
"123 356 CURVE SMOOTH"
);
}
);
width = 755;
}
);
leftMetricsKey = O;
rightMetricsKey = O;
unicode = 0051;
},
{
glyphname = R;
lastChange = "2022-03-25 10:28:07 +0000";
layers = (
{
layerId = "9DF75A15-0AF9-4389-BE6D-DBD1DB18A6A2";
paths = (
{
closed = 1;
nodes = (
"358 275 LINE",
"550 0 LINE",
"643 0 LINE",
"447 280 LINE",
"545 300 OFFCURVE",
"603 389 OFFCURVE",
"603 495 CURVE SMOOTH",
"603 616 OFFCURVE",
"529 715 OFFCURVE",
"402 715 CURVE SMOOTH",
"75 715 LINE",
"75 0 LINE",
"160 0 LINE",
"160 275 LINE"
);
},
{
closed = 1;
nodes = (
"160 644 LINE",
"392 644 LINE SMOOTH",
"475 644 OFFCURVE",
"517 571 OFFCURVE",
"517 494 CURVE SMOOTH",
"517 418 OFFCURVE",
"472 345 OFFCURVE",
"392 345 CURVE SMOOTH",
"160 346 LINE"
);
}
);
width = 678;
}
);
leftMetricsKey = H;
rightMetricsKey = O;
unicode = 0052;
},
{
glyphname = S;
lastChange = "2022-04-13 11:04:20 +0000";
layers = (
{
guideLines = (
{
angle = 90;
position = "{520, 494}";
},
{
angle = 90;
position = "{120, 335}";
}
);
layerId = "9DF75A15-0AF9-4389-BE6D-DBD1DB18A6A2";
paths = (
{
closed = 1;
nodes = (
"510 -21 OFFCURVE",
"627 61 OFFCURVE",
"627 195 CURVE SMOOTH",
"627 348 OFFCURVE",
"483 381 OFFCURVE",
"365 410 CURVE SMOOTH",
"239 441 OFFCURVE",
"147 470 OFFCURVE",
"147 547 CURVE SMOOTH",
"147 609 OFFCURVE",
"215 656 OFFCURVE",
"317 656 CURVE SMOOTH",
"425 656 OFFCURVE",
"506 617 OFFCURVE",
"520 509 CURVE",
"605 508 LINE",
"588 651 OFFCURVE",
"484 731 OFFCURVE",
"334 731 CURVE SMOOTH",
"156 731 OFFCURVE",
"59 652 OFFCURVE",
"59 535 CURVE SMOOTH",
"59 400 OFFCURVE",
"206 365 OFFCURVE",
"328 338 CURVE SMOOTH",
"477 305 OFFCURVE",
"540 266 OFFCURVE",
"539 190 CURVE SMOOTH",
"538 112 OFFCURVE",
"458 56 OFFCURVE",
"354 59 CURVE SMOOTH",
"251 62 OFFCURVE",
"139 91 OFFCURVE",
"120 235 CURVE",
"35 236 LINE",
"48 77 OFFCURVE",
"165 -11 OFFCURVE",
"334 -16 CURVE SMOOTH"
);
}
);
width = 662;
}
);
leftMetricsKey = O;
rightMetricsKey = O;
unicode = 0053;
},
{
glyphname = T;
lastChange = "2022-03-25 10:27:10 +0000";
layers = (
{
layerId = "9DF75A15-0AF9-4389-BE6D-DBD1DB18A6A2";
paths = (
{
closed = 1;
nodes = (
"322 0 LINE",
"322 544 LINE SMOOTH",
"322 579 OFFCURVE",
"319 644 OFFCURVE",
"319 644 CURVE",
"549 644 LINE",
"549 715 LINE",
"8 715 LINE",
"8 644 LINE",
"238 644 LINE",
"238 644 OFFCURVE",
"237 579 OFFCURVE",
"237 544 CURVE SMOOTH",
"237 0 LINE"
);
}
);
width = 557;
}
);
leftMetricsKey = V;
rightMetricsKey = V;
unicode = 0054;
},
{
glyphname = U;
lastChange = "2022-03-25 10:26:19 +0000";
layers = (
{
layerId = "9DF75A15-0AF9-4389-BE6D-DBD1DB18A6A2";
paths = (
{
closed = 1;
nodes = (
"513 -15 OFFCURVE",
"615 92 OFFCURVE",
"615 297 CURVE SMOOTH",
"615 715 LINE",
"530 715 LINE",
"530 276 LINE SMOOTH",
"530 138 OFFCURVE",
"462 60 OFFCURVE",
"344 60 CURVE SMOOTH",
"228 60 OFFCURVE",
"160 138 OFFCURVE",
"160 276 CURVE SMOOTH",
"160 715 LINE",
"75 715 LINE",
"75 297 LINE SMOOTH",
"75 92 OFFCURVE",
"179 -15 OFFCURVE",
"345 -15 CURVE SMOOTH"
);
}
);
width = 690;
}
);
leftMetricsKey = H;
rightMetricsKey = H;
unicode = 0055;
},
{
glyphname = V;
lastChange = "2022-03-25 10:13:15 +0000";
layers = (
{
layerId = "9DF75A15-0AF9-4389-BE6D-DBD1DB18A6A2";
paths = (
{
closed = 1;
nodes = (
"341 0 LINE",
"589 716 LINE",
"508 716 LINE",
"358 281 LINE SMOOTH",
"341 231 OFFCURVE",
"299 89 OFFCURVE",
"299 89 CURVE",
"299 89 OFFCURVE",
"256 231 OFFCURVE",
"239 281 CURVE SMOOTH",
"89 716 LINE",
"8 716 LINE",
"258 0 LINE"
);
}
);
width = 597;
}
);
unicode = 0056;
},
{
glyphname = W;
lastChange = "2022-03-25 10:27:10 +0000";
layers = (
{
guideLines = (
{
position = "{-100, 276}";
}
);
layerId = "9DF75A15-0AF9-4389-BE6D-DBD1DB18A6A2";
paths = (
{
closed = 1;
nodes = (
"726 1 LINE",
"940 716 LINE",
"859 716 LINE",
"730 277 LINE SMOOTH",
"717 232 OFFCURVE",
"688 110 OFFCURVE",
"688 110 CURVE",
"688 110 OFFCURVE",
"658 232 OFFCURVE",
"645 277 CURVE SMOOTH",
"514 716 LINE",
"434 716 LINE",
"303 275 LINE SMOOTH",
"290 231 OFFCURVE",
"261 110 OFFCURVE",
"261 110 CURVE",
"261 110 OFFCURVE",
"231 231 OFFCURVE",
"218 275 CURVE SMOOTH",
"89 716 LINE",
"8 716 LINE",
"222 1 LINE",
"299 1 LINE",
"474 586 LINE",
"649 1 LINE"
);
}
);
width = 948;
}
);
leftMetricsKey = V;
rightMetricsKey = V;
unicode = 0057;
},
{
glyphname = X;
lastChange = "2022-03-25 10:28:07 +0000";
layers = (
{
guideLines = (
{
position = "{-163, 535}";
},
{
position = "{-163, 176}";
},
{
angle = 90;
position = "{194, -409}";
},
{
angle = 90;
position = "{415, -409}";
}
);
layerId = "9DF75A15-0AF9-4389-BE6D-DBD1DB18A6A2";
paths = (
{
closed = 1;
nodes = (
"194 462 LINE SMOOTH",
"213 431 OFFCURVE",
"253 369 OFFCURVE",
"253 369 CURVE",
"253 369 OFFCURVE",
"214 308 OFFCURVE",
"195 277 CURVE SMOOTH",
"35 22 LINE",
"123 22 LINE",
"220 177 LINE SMOOTH",
"245 217 OFFCURVE",
"296 299 OFFCURVE",
"296 299 CURVE",
"296 299 OFFCURVE",
"347 217 OFFCURVE",
"372 177 CURVE SMOOTH",
"483 0 LINE",
"572 0 LINE",
"414 252 LINE SMOOTH",
"390 291 OFFCURVE",
"340 369 OFFCURVE",
"340 369 CURVE",
"340 369 OFFCURVE",
"391 448 OFFCURVE",
"416 488 CURVE SMOOTH",
"572 737 LINE",
"483 737 LINE",
"356 535 LINE SMOOTH",
"336 503 OFFCURVE",
"296 438 OFFCURVE",
"296 438 CURVE",
"296 438 OFFCURVE",
"255 504 OFFCURVE",
"235 536 CURVE SMOOTH",
"123 715 LINE",
"35 715 LINE"
);
}
);
width = 607;
}
);
leftMetricsKey = O;
rightMetricsKey = O;
unicode = 0058;
},
{
glyphname = Y;
lastChange = "2022-03-25 10:27:10 +0000";
layers = (
{
guideLines = (
{
position = "{-67, 455}";
}
);
layerId = "9DF75A15-0AF9-4389-BE6D-DBD1DB18A6A2";
paths = (
{
closed = 1;
nodes = (
"341 0 LINE",
"341 322 LINE",
"588 716 LINE",
"499 716 LINE",
"335 455 LINE SMOOTH",
"320 432 OFFCURVE",
"298 393 OFFCURVE",
"298 393 CURVE",
"298 393 OFFCURVE",
"277 431 OFFCURVE",
"262 454 CURVE SMOOTH",
"97 716 LINE",
"8 716 LINE",
"256 322 LINE",
"256 0 LINE"
);
}
);
width = 596;
}
);
leftMetricsKey = V;
rightMetricsKey = V;
unicode = 0059;
},
{
glyphname = Z;
lastChange = "2022-03-25 10:28:07 +0000";
layers = (
{
layerId = "9DF75A15-0AF9-4389-BE6D-DBD1DB18A6A2";
paths = (
{
closed = 1;
nodes = (
"575 0 LINE",
"575 71 LINE",
"152 71 LINE",
"575 681 LINE",
"575 715 LINE",
"35 715 LINE",
"35 644 LINE",
"458 644 LINE",
"35 35 LINE",
"35 0 LINE"
);
}
);
width = 610;
}
);
leftMetricsKey = O;
rightMetricsKey = O;
unicode = 005A;
},
{
glyphname = a;
lastChange = "2022-04-13 11:06:53 +0000";
layers = (
{
layerId = "9DF75A15-0AF9-4389-BE6D-DBD1DB18A6A2";
paths = (
{
closed = 1;
nodes = (
"293 -15 OFFCURVE",
"349 20 OFFCURVE",
"381 79 CURVE",
"387 33 OFFCURVE",
"420 -3 OFFCURVE",
"479 -3 CURVE SMOOTH",
"499 -3 OFFCURVE",
"502 -1 OFFCURVE",
"502 -1 CURVE",
"502 64 LINE",
"471 64 OFFCURVE",
"453 77 OFFCURVE",
"453 121 CURVE",
"453 123 OFFCURVE",
"454 304 OFFCURVE",
"453 389 CURVE SMOOTH",
"452 474 OFFCURVE",
"381 530 OFFCURVE",
"252 530 CURVE SMOOTH",
"142 530 OFFCURVE",
"66 472 OFFCURVE",
"54 367 CURVE",
"136 367 LINE",
"144 440 OFFCURVE",
"194 469 OFFCURVE",
"263 469 CURVE SMOOTH",
"329 469 OFFCURVE",
"376 434 OFFCURVE",
"376 391 CURVE SMOOTH",
"376 338 OFFCURVE",
"322 324 OFFCURVE",
"229 301 CURVE SMOOTH",
"120 277 OFFCURVE",
"38 254 OFFCURVE",
"38 144 CURVE SMOOTH",
"38 51 OFFCURVE",
"125 -15 OFFCURVE",
"217 -15 CURVE SMOOTH"
);
},
{
closed = 1;
nodes = (
"169 49 OFFCURVE",
"121 85 OFFCURVE",
"121 139 CURVE SMOOTH",
"121 181 OFFCURVE",
"144 214 OFFCURVE",
"256 238 CURVE SMOOTH",
"301 248 OFFCURVE",
"363 271 OFFCURVE",
"378 294 CURVE",
"378 226 LINE SMOOTH",
"378 120 OFFCURVE",
"311 49 OFFCURVE",
"239 49 CURVE SMOOTH"
);
}
);
width = 537;
}
);
leftMetricsKey = o;
rightMetricsKey = f;
unicode = 0061;
},
{
glyphname = ae;
lastChange = "2022-04-13 10:04:53 +0000";
layers = (
{
components = (
{
alignment = -1;
name = e;
transform = "{1, 0, 0, 1, 340, 0}";
}
);
layerId = "9DF75A15-0AF9-4389-BE6D-DBD1DB18A6A2";
paths = (
{
closed = 1;
nodes = (
"166 49 OFFCURVE",
"118 85 OFFCURVE",
"118 139 CURVE SMOOTH",
"118 181 OFFCURVE",
"141 214 OFFCURVE",
"253 238 CURVE SMOOTH",
"298 248 OFFCURVE",
"341 258 OFFCURVE",
"375 274 CURVE",
"375 226 LINE SMOOTH",
"375 120 OFFCURVE",
"308 49 OFFCURVE",
"236 49 CURVE SMOOTH"
);
},
{
closed = 1;
nodes = (
"449 474 OFFCURVE",
"378 530 OFFCURVE",
"249 530 CURVE SMOOTH",
"139 530 OFFCURVE",
"63 472 OFFCURVE",
"51 367 CURVE",
"133 367 LINE",
"141 440 OFFCURVE",
"191 469 OFFCURVE",
"260 469 CURVE SMOOTH",
"326 469 OFFCURVE",
"373 434 OFFCURVE",
"373 391 CURVE SMOOTH",
"373 338 OFFCURVE",
"319 324 OFFCURVE",
"226 301 CURVE SMOOTH",
"117 277 OFFCURVE",
"35 254 OFFCURVE",
"35 144 CURVE SMOOTH",
"35 51 OFFCURVE",
"122 -15 OFFCURVE",
"214 -15 CURVE SMOOTH",
"290 -15 OFFCURVE",
"394 20 OFFCURVE",
"404 163 CURVE",
"450 389 LINE"
);
}
);
width = 1085;
}
);
unicode = 00E6;
},
{
glyphname = b;
lastChange = "2022-04-13 11:06:53 +0000";
layers = (
{
layerId = "9DF75A15-0AF9-4389-BE6D-DBD1DB18A6A2";
paths = (
{
closed = 1;
nodes = (
"441 -15 OFFCURVE",
"539 87 OFFCURVE",
"539 258 CURVE SMOOTH",
"539 428 OFFCURVE",
"442 530 OFFCURVE",
"331 530 CURVE SMOOTH",
"242 530 OFFCURVE",
"176 481 OFFCURVE",
"154 435 CURVE",
"154 717 LINE",
"73 717 LINE",
"73 0 LINE",
"154 0 LINE",
"154 80 LINE",
"176 34 OFFCURVE",
"242 -15 OFFCURVE",
"331 -15 CURVE SMOOTH"
);
},
{
closed = 1;
nodes = (
"154 371 OFFCURVE",
"207 461 OFFCURVE",
"306 461 CURVE SMOOTH",
"384 461 OFFCURVE",
"456 391 OFFCURVE",
"456 257 CURVE SMOOTH",
"456 125 OFFCURVE",
"385 55 OFFCURVE",
"306 55 CURVE SMOOTH",
"207 55 OFFCURVE",
"154 145 OFFCURVE",
"154 257 CURVE SMOOTH"
);
}
);
width = 577;
}
);
leftMetricsKey = n;
rightMetricsKey = o;
unicode = 0062;
},
{
glyphname = c;
lastChange = "2022-04-13 11:06:53 +0000";
layers = (
{
layerId = "9DF75A15-0AF9-4389-BE6D-DBD1DB18A6A2";
paths = (
{
closed = 1;
nodes = (
"413 -14 OFFCURVE",
"491 65 OFFCURVE",
"511 174 CURVE",
"430 174 LINE",
"415 110 OFFCURVE",
"362 58 OFFCURVE",
"288 58 CURVE SMOOTH",
"182 58 OFFCURVE",
"121 151 OFFCURVE",
"121 257 CURVE SMOOTH",
"121 367 OFFCURVE",
"181 459 OFFCURVE",
"289 459 CURVE SMOOTH",
"362 459 OFFCURVE",
"414 406 OFFCURVE",
"429 342 CURVE",
"512 342 LINE",
"492 451 OFFCURVE",
"414 530 OFFCURVE",
"288 530 CURVE SMOOTH",
"134 530 OFFCURVE",
"38 408 OFFCURVE",
"38 258 CURVE SMOOTH",
"38 108 OFFCURVE",
"134 -14 OFFCURVE",
"288 -14 CURVE SMOOTH"
);
}
);
width = 550;
}
);
leftMetricsKey = o;
rightMetricsKey = o;
unicode = 0063;
},
{
glyphname = d;
lastChange = "2022-04-13 11:06:53 +0000";
layers = (
{
layerId = "9DF75A15-0AF9-4389-BE6D-DBD1DB18A6A2";
paths = (
{
closed = 1;
nodes = (
"335 -15 OFFCURVE",
"401 34 OFFCURVE",
"423 80 CURVE",
"423 0 LINE",
"504 0 LINE",
"504 717 LINE",
"423 717 LINE",
"423 435 LINE",
"401 481 OFFCURVE",
"335 530 OFFCURVE",
"246 530 CURVE SMOOTH",
"135 530 OFFCURVE",
"38 428 OFFCURVE",
"38 258 CURVE SMOOTH",
"38 87 OFFCURVE",
"136 -15 OFFCURVE",
"246 -15 CURVE SMOOTH"
);
},
{
closed = 1;
nodes = (
"121 391 OFFCURVE",
"193 461 OFFCURVE",
"271 461 CURVE SMOOTH",
"370 461 OFFCURVE",
"423 371 OFFCURVE",
"423 257 CURVE SMOOTH",
"423 145 OFFCURVE",
"370 55 OFFCURVE",
"271 55 CURVE SMOOTH",
"192 55 OFFCURVE",
"121 125 OFFCURVE",
"121 257 CURVE SMOOTH"
);
}
);
width = 577;
}
);
leftMetricsKey = o;
rightMetricsKey = n;
unicode = 0064;
},
{
glyphname = e;
lastChange = "2022-04-13 11:06:53 +0000";
layers = (
{
guideLines = (
{
position = "{3, 160}";
}
);
layerId = "9DF75A15-0AF9-4389-BE6D-DBD1DB18A6A2";
paths = (
{
closed = 1;
nodes = (
"410 -14 OFFCURVE",
"483 62 OFFCURVE",
"508 161 CURVE",
"427 160 LINE",
"411 105 OFFCURVE",
"367 53 OFFCURVE",
"288 53 CURVE",
"178 53 OFFCURVE",
"124 142 OFFCURVE",
"119 244 CURVE",
"139 243 OFFCURVE",
"185 242 OFFCURVE",
"226 242 CURVE",
"519 242 LINE",
"519 258 LINE",
"519 408 OFFCURVE",
"445 530 OFFCURVE",
"288 530 CURVE",
"134 530 OFFCURVE",
"38 408 OFFCURVE",
"38 258 CURVE",
"38 108 OFFCURVE",
"134 -14 OFFCURVE",
"288 -14 CURVE"
);
},
{
closed = 1;
nodes = (
"137 394 OFFCURVE",
"178 464 OFFCURVE",
"289 464 CURVE SMOOTH",
"376 464 OFFCURVE",
"426 395 OFFCURVE",
"436 307 CURVE",
"226 307 LINE SMOOTH",
"187 307 OFFCURVE",
"144 306 OFFCURVE",
"123 305 CURVE SMOOTH"
);
}
);
width = 557;
}
);
leftMetricsKey = o;
rightMetricsKey = o;
unicode = 0065;
},
{
glyphname = f;
lastChange = "2022-03-25 08:53:54 +0000";
layers = (
{
layerId = "9DF75A15-0AF9-4389-BE6D-DBD1DB18A6A2";
paths = (
{
closed = 1;
nodes = (
"198 0 LINE",
"198 362 LINE SMOOTH",
"198 391 OFFCURVE",
"197 451 OFFCURVE",
"197 451 CURVE SMOOTH",
"197 451 OFFCURVE",
"225 450 OFFCURVE",
"240 450 CURVE SMOOTH",
"299 450 LINE",
"299 517 LINE",
"240 517 LINE SMOOTH",
"225 517 OFFCURVE",
"197 516 OFFCURVE",
"197 516 CURVE",
"198 579 LINE SMOOTH",
"199 659 OFFCURVE",
"260 649 OFFCURVE",
"297 649 CURVE",
"297 716 LINE",
"297 716 OFFCURVE",
"266 719 OFFCURVE",
"232 716 CURVE SMOOTH",
"153 710 OFFCURVE",
"117 655 OFFCURVE",
"117 592 CURVE SMOOTH",
"117 567 OFFCURVE",
"118 516 OFFCURVE",
"118 516 CURVE SMOOTH",
"118 516 OFFCURVE",
"88 517 OFFCURVE",
"73 517 CURVE SMOOTH",
"35 517 LINE",
"35 450 LINE",
"73 450 LINE SMOOTH",
"88 450 OFFCURVE",
"118 451 OFFCURVE",
"118 451 CURVE SMOOTH",
"118 451 OFFCURVE",
"117 392 OFFCURVE",
"117 362 CURVE SMOOTH",
"117 0 LINE"
);
}
);
width = 334;
}
);
unicode = 0066;
},
{
glyphname = g;
lastChange = "2022-04-13 11:06:53 +0000";
layers = (
{
layerId = "9DF75A15-0AF9-4389-BE6D-DBD1DB18A6A2";
paths = (
{
closed = 1;
nodes = (
"404 -182 OFFCURVE",
"504 -116 OFFCURVE",
"504 60 CURVE SMOOTH",
"504 517 LINE",
"423 517 LINE",
"423 441 LINE",
"401 483 OFFCURVE",
"335 530 OFFCURVE",
"246 530 CURVE SMOOTH",
"136 530 OFFCURVE",
"38 434 OFFCURVE",
"38 274 CURVE SMOOTH",
"38 115 OFFCURVE",
"135 18 OFFCURVE",
"246 18 CURVE SMOOTH",
"335 18 OFFCURVE",
"401 64 OFFCURVE",
"423 108 CURVE",
"423 68 LINE SMOOTH",
"423 -65 OFFCURVE",
"374 -122 OFFCURVE",
"273 -122 CURVE SMOOTH",
"163 -122 OFFCURVE",
"149 -64 OFFCURVE",
"140 -32 CURVE",
"59 -31 LINE",
"69 -108 OFFCURVE",
"133 -182 OFFCURVE",
"273 -182 CURVE SMOOTH"
);
},
{
closed = 1;
nodes = (
"120 398 OFFCURVE",
"192 465 OFFCURVE",
"271 465 CURVE SMOOTH",
"370 465 OFFCURVE",
"423 380 OFFCURVE",
"423 275 CURVE SMOOTH",
"423 167 OFFCURVE",
"370 83 OFFCURVE",
"271 83 CURVE SMOOTH",
"193 83 OFFCURVE",
"120 149 OFFCURVE",
"120 275 CURVE SMOOTH"
);
}
);
width = 577;
}
);
leftMetricsKey = o;
rightMetricsKey = n;
unicode = 0067;
},
{
glyphname = h;
lastChange = "2022-03-25 08:15:25 +0000";
layers = (
{
layerId = "9DF75A15-0AF9-4389-BE6D-DBD1DB18A6A2";
paths = (
{
closed = 1;
nodes = (
"154 389 OFFCURVE",
"212 461 OFFCURVE",
"305 461 CURVE SMOOTH",
"375 461 OFFCURVE",
"413 425 OFFCURVE",
"413 338 CURVE SMOOTH",
"413 0 LINE",
"494 0 LINE",
"494 374 LINE SMOOTH",
"494 471 OFFCURVE",
"423 531 OFFCURVE",
"330 531 CURVE SMOOTH",
"242 531 OFFCURVE",
"175 479 OFFCURVE",
"154 445 CURVE",
"154 716 LINE",
"73 716 LINE",
"73 0 LINE",
"154 0 LINE",
"154 333 LINE SMOOTH"
);
}
);
width = 567;
}
);
leftMetricsKey = n;
rightMetricsKey = n;
unicode = 0068;
},
{
glyphname = j;
lastChange = "2022-03-25 10:37:19 +0000";
layers = (
{
components = (
{
name = dotaccentcomb;
transform = "{1, 0, 0, 1, 126, 0}";
}
);
hints = (
{
horizontal = 1;
place = "{-96, 67}";
type = Stem;
}
);
layerId = "9DF75A15-0AF9-4389-BE6D-DBD1DB18A6A2";
paths = (
{
closed = 1;
nodes = (
"216 517 LINE",
"135 517 LINE",
"135 35 LINE SMOOTH",
"135 -24 OFFCURVE",
"118 -25 OFFCURVE",
"91 -29 CURVE SMOOTH",
"76 -31 OFFCURVE",
"35 -29 OFFCURVE",
"35 -29 CURVE",
"35 -96 LINE",
"35 -96 OFFCURVE",
"56 -99 OFFCURVE",
"99 -99 CURVE SMOOTH",
"167 -99 OFFCURVE",
"216 -73 OFFCURVE",
"216 0 CURVE SMOOTH"
);
}
);
width = 297;
}
);
leftMetricsKey = f;
rightMetricsKey = n;
unicode = 006A;
},
{
glyphname = k;
lastChange = "2022-03-25 10:27:10 +0000";
layers = (
{
guideLines = (
{
angle = 90;
position = "{-72, 259}";
},
{
angle = 90;
position = "{447, 821}";
}
);
layerId = "9DF75A15-0AF9-4389-BE6D-DBD1DB18A6A2";
paths = (
{
closed = 1;
nodes = (
"154 197 OFFCURVE",
"188 232 OFFCURVE",
"205 251 CURVE",
"247 192 LINE",
"387 0 LINE",
"479 0 LINE",
"255 305 LINE",
"447 516 LINE",
"358 516 LINE",
"216 362 LINE SMOOTH",
"195 340 OFFCURVE",
"154 293 OFFCURVE",
"154 293 CURVE",
"154 717 LINE",
"74 717 LINE",
"73 0 LINE",
"154 1 LINE",
"154 197 LINE"
);
}
);
width = 489;
}
);
leftMetricsKey = n;
unicode = 006B;
},
{
glyphname = l;
lastChange = "2022-03-25 08:15:25 +0000";
layers = (
{
layerId = "9DF75A15-0AF9-4389-BE6D-DBD1DB18A6A2";
paths = (
{
closed = 1;
nodes = (
"154 0 LINE",
"154 716 LINE",
"73 716 LINE",
"73 0 LINE"
);
}
);
width = 227;
}
);
leftMetricsKey = n;
rightMetricsKey = n;
unicode = 006C;
},
{
glyphname = m;
lastChange = "2022-03-25 08:15:25 +0000";
layers = (
{
anchors = (
{
name = bottom;
position = "{318, 0}";
}
);
layerId = "9DF75A15-0AF9-4389-BE6D-DBD1DB18A6A2";
paths = (
{
closed = 1;
nodes = (
"463 389 OFFCURVE",
"503 461 OFFCURVE",
"596 461 CURVE SMOOTH",
"657 461 OFFCURVE",
"691 425 OFFCURVE",
"691 338 CURVE SMOOTH",
"692 225 OFFCURVE",
"691 113 OFFCURVE",
"691 0 CURVE",
"772 0 LINE",
"772 374 LINE SMOOTH",
"772 471 OFFCURVE",
"705 531 OFFCURVE",
"621 531 CURVE SMOOTH",
"540 531 OFFCURVE",
"477 489 OFFCURVE",
"448 448 CURVE",
"423 500 OFFCURVE",
"372 531 OFFCURVE",
"312 531 CURVE SMOOTH",
"224 531 OFFCURVE",
"175 479 OFFCURVE",
"154 445 CURVE",
"154 517 LINE",
"73 517 LINE",
"73 0 LINE",
"154 0 LINE",
"154 333 LINE SMOOTH",
"154 389 OFFCURVE",
"194 461 OFFCURVE",
"287 461 CURVE SMOOTH",
"348 461 OFFCURVE",
"382 425 OFFCURVE",
"382 338 CURVE SMOOTH",
"382 0 LINE",
"463 0 LINE",
"463 333 LINE SMOOTH"
);
}
);
width = 845;
}
);
leftMetricsKey = n;
rightMetricsKey = n;
unicode = 006D;
},
{
glyphname = n;
lastChange = "2022-03-25 08:32:43 +0000";
layers = (
{
hints = (
{
place = "{55, 81}";
type = Stem;
},
{
place = "{395, 81}";
type = Stem;
},
{
horizontal = 1;
place = "{461, 68}";
type = Stem;
}
);
layerId = "9DF75A15-0AF9-4389-BE6D-DBD1DB18A6A2";
paths = (
{
closed = 1;
nodes = (
"154 389 OFFCURVE",
"212 461 OFFCURVE",
"305 461 CURVE SMOOTH",
"375 461 OFFCURVE",
"413 425 OFFCURVE",
"413 338 CURVE SMOOTH",
"413 0 LINE",
"494 0 LINE",
"494 374 LINE SMOOTH",
"494 471 OFFCURVE",
"423 531 OFFCURVE",
"330 531 CURVE SMOOTH",
"242 531 OFFCURVE",
"175 479 OFFCURVE",
"154 445 CURVE",
"154 517 LINE",
"73 517 LINE",
"73 0 LINE",
"154 0 LINE",
"154 333 LINE SMOOTH"
);
}
);
width = 567;
}
);
unicode = 006E;
},
{
glyphname = o;
lastChange = "2022-04-13 11:06:47 +0000";
layers = (
{
hints = (
{
place = "{22, 83}";
type = Stem;
},
{
place = "{438, 83}";
type = Stem;
},
{
horizontal = 1;
place = "{530, -81}";
type = Stem;
},
{
horizontal = 1;
place = "{-14, 81}";
type = Stem;
}
);
layerId = "9DF75A15-0AF9-4389-BE6D-DBD1DB18A6A2";
paths = (
{
closed = 1;
nodes = (
"443 -14 OFFCURVE",
"537 108 OFFCURVE",
"537 258 CURVE SMOOTH",
"537 408 OFFCURVE",
"445 530 OFFCURVE",
"288 530 CURVE SMOOTH",
"134 530 OFFCURVE",
"38 408 OFFCURVE",
"38 258 CURVE SMOOTH",
"38 108 OFFCURVE",
"134 -14 OFFCURVE",
"288 -14 CURVE SMOOTH"
);
},
{
closed = 1;
nodes = (
"121 366 OFFCURVE",
"181 459 OFFCURVE",
"288 459 CURVE SMOOTH",
"398 459 OFFCURVE",
"455 366 OFFCURVE",
"455 258 CURVE SMOOTH",
"455 151 OFFCURVE",
"395 58 OFFCURVE",
"288 58 CURVE SMOOTH",
"182 58 OFFCURVE",
"121 151 OFFCURVE",
"121 258 CURVE SMOOTH"
);
}
);
width = 575;
}
);
unicode = 006F;
},
{
glyphname = oe;
lastChange = "2022-04-13 11:06:53 +0000";
layers = (
{
hints = (
{
place = "{22, 83}";
type = Stem;
},
{
place = "{438, 83}";
type = Stem;
},
{
horizontal = 1;
place = "{530, -81}";
type = Stem;
},
{
horizontal = 1;
place = "{-14, 81}";
type = Stem;
}
);
layerId = "9DF75A15-0AF9-4389-BE6D-DBD1DB18A6A2";
paths = (
{
closed = 1;
nodes = (
"828 -14 OFFCURVE",
"901 62 OFFCURVE",
"926 161 CURVE",
"845 160 LINE",
"829 105 OFFCURVE",
"785 53 OFFCURVE",
"706 53 CURVE SMOOTH",
"596 53 OFFCURVE",
"542 142 OFFCURVE",
"537 244 CURVE",
"557 243 OFFCURVE",
"603 242 OFFCURVE",
"644 242 CURVE SMOOTH",
"937 242 LINE",
"937 258 LINE SMOOTH",
"937 408 OFFCURVE",
"863 530 OFFCURVE",
"706 530 CURVE SMOOTH",
"612 530 OFFCURVE",
"534 484 OFFCURVE",
"497 374 CURVE",
"461 484 OFFCURVE",
"384 530 OFFCURVE",
"288 530 CURVE SMOOTH",
"134 530 OFFCURVE",
"38 408 OFFCURVE",
"38 258 CURVE SMOOTH",
"38 108 OFFCURVE",
"134 -14 OFFCURVE",
"288 -14 CURVE SMOOTH",
"383 -14 OFFCURVE",
"460 32 OFFCURVE",
"497 142 CURVE",
"534 32 OFFCURVE",
"612 -14 OFFCURVE",
"706 -14 CURVE SMOOTH"
);
},
{
closed = 1;
nodes = (
"121 366 OFFCURVE",
"181 459 OFFCURVE",
"288 459 CURVE SMOOTH",
"398 459 OFFCURVE",
"455 366 OFFCURVE",
"455 258 CURVE SMOOTH",
"455 151 OFFCURVE",
"395 58 OFFCURVE",
"288 58 CURVE SMOOTH",
"182 58 OFFCURVE",
"121 151 OFFCURVE",
"121 258 CURVE SMOOTH"
);
},
{
closed = 1;
nodes = (
"555 394 OFFCURVE",
"596 464 OFFCURVE",
"707 464 CURVE SMOOTH",
"794 464 OFFCURVE",
"844 395 OFFCURVE",
"854 307 CURVE",
"644 307 LINE SMOOTH",
"605 307 OFFCURVE",
"562 306 OFFCURVE",
"541 305 CURVE"
);
}
);
width = 975;
}
);
leftMetricsKey = o;
rightMetricsKey = e;
unicode = 0153;
},
{
glyphname = p;
lastChange = "2022-04-13 11:06:53 +0000";
layers = (
{
layerId = "9DF75A15-0AF9-4389-BE6D-DBD1DB18A6A2";
paths = (
{
closed = 1;
nodes = (
"154 -166 LINE",
"154 80 LINE",
"176 34 OFFCURVE",
"242 -15 OFFCURVE",
"331 -15 CURVE SMOOTH",
"442 -15 OFFCURVE",
"539 87 OFFCURVE",
"539 257 CURVE SMOOTH",
"539 428 OFFCURVE",
"441 530 OFFCURVE",
"331 530 CURVE SMOOTH",
"242 530 OFFCURVE",
"176 481 OFFCURVE",
"154 435 CURVE",
"154 517 LINE",
"73 517 LINE",
"73 -166 LINE"
);
},
{
closed = 1;
nodes = (
"154 370 OFFCURVE",
"207 460 OFFCURVE",
"306 460 CURVE SMOOTH",
"385 460 OFFCURVE",
"457 390 OFFCURVE",
"457 258 CURVE SMOOTH",
"457 124 OFFCURVE",
"384 54 OFFCURVE",
"306 54 CURVE SMOOTH",
"207 54 OFFCURVE",
"154 144 OFFCURVE",
"154 258 CURVE SMOOTH"
);
}
);
width = 577;
}
);
leftMetricsKey = n;
rightMetricsKey = o;
unicode = 0070;
},
{
glyphname = thorn;
lastChange = "2022-04-13 11:06:53 +0000";
layers = (
{
layerId = "9DF75A15-0AF9-4389-BE6D-DBD1DB18A6A2";
paths = (
{
closed = 1;
nodes = (
"154 -166 LINE",
"154 80 LINE",
"176 34 OFFCURVE",
"242 -15 OFFCURVE",
"331 -15 CURVE SMOOTH",
"442 -15 OFFCURVE",
"539 87 OFFCURVE",
"539 257 CURVE SMOOTH",
"539 428 OFFCURVE",
"441 530 OFFCURVE",
"331 530 CURVE SMOOTH",
"242 530 OFFCURVE",
"176 481 OFFCURVE",
"154 435 CURVE",
"154 716 LINE",
"73 716 LINE",
"73 -166 LINE"
);
},
{
closed = 1;
nodes = (
"154 370 OFFCURVE",
"207 460 OFFCURVE",
"306 460 CURVE SMOOTH",
"385 460 OFFCURVE",
"457 390 OFFCURVE",
"457 258 CURVE SMOOTH",
"457 124 OFFCURVE",
"384 54 OFFCURVE",
"306 54 CURVE SMOOTH",
"207 54 OFFCURVE",
"154 144 OFFCURVE",
"154 258 CURVE SMOOTH"
);
}
);
width = 577;
}
);
leftMetricsKey = p;
rightMetricsKey = p;
unicode = 00FE;
},
{
glyphname = q;
lastChange = "2022-04-13 11:06:53 +0000";
layers = (
{
layerId = "9DF75A15-0AF9-4389-BE6D-DBD1DB18A6A2";
paths = (
{
closed = 1;
nodes = (
"504 -166 LINE",
"504 517 LINE",
"423 517 LINE",
"423 435 LINE",
"401 481 OFFCURVE",
"335 530 OFFCURVE",
"246 530 CURVE SMOOTH",
"136 530 OFFCURVE",
"38 428 OFFCURVE",
"38 257 CURVE SMOOTH",
"38 87 OFFCURVE",
"135 -15 OFFCURVE",
"246 -15 CURVE SMOOTH",
"335 -15 OFFCURVE",
"401 34 OFFCURVE",
"423 80 CURVE",
"423 -166 LINE"
);
},
{
closed = 1;
nodes = (
"120 390 OFFCURVE",
"192 460 OFFCURVE",
"271 460 CURVE SMOOTH",
"370 460 OFFCURVE",
"423 370 OFFCURVE",
"423 258 CURVE SMOOTH",
"423 144 OFFCURVE",
"370 54 OFFCURVE",
"271 54 CURVE SMOOTH",
"193 54 OFFCURVE",
"120 124 OFFCURVE",
"120 258 CURVE SMOOTH"
);
}
);
width = 577;
}
);
leftMetricsKey = o;
rightMetricsKey = n;
unicode = 0071;
},
{
glyphname = r;
lastChange = "2022-04-13 10:57:34 +0000";
layers = (
{
layerId = "9DF75A15-0AF9-4389-BE6D-DBD1DB18A6A2";
paths = (
{
closed = 1;
nodes = (
"337 531 OFFCURVE",
"337 459 OFFCURVE",
"337 459 CURVE",
"337 459 OFFCURVE",
"323 461 OFFCURVE",
"305 461 CURVE SMOOTH",
"212 461 OFFCURVE",
"154 389 OFFCURVE",
"154 333 CURVE SMOOTH",
"154 0 LINE",
"73 0 LINE",
"73 517 LINE",
"154 517 LINE",
"154 435 LINE",
"175 479 OFFCURVE",
"242 531 OFFCURVE",
"330 531 CURVE SMOOTH",
"332 531 OFFCURVE",
"335 531 OFFCURVE",
"337 531 CURVE"
);
}
);
width = 368;
}
);
leftMetricsKey = n;
unicode = 0072;
},
{
glyphname = s;
lastChange = "2022-04-13 11:06:53 +0000";
layers = (
{
layerId = "9DF75A15-0AF9-4389-BE6D-DBD1DB18A6A2";
paths = (
{
closed = 1;
nodes = (
"400 -16 OFFCURVE",
"468 51 OFFCURVE",
"468 144 CURVE SMOOTH",
"468 254 OFFCURVE",
"386 276 OFFCURVE",
"277 301 CURVE SMOOTH",
"185 325 OFFCURVE",
"135 338 OFFCURVE",
"135 391 CURVE SMOOTH",
"135 434 OFFCURVE",
"177 459 OFFCURVE",
"243 459 CURVE SMOOTH",
"312 459 OFFCURVE",
"362 431 OFFCURVE",
"368 367 CURVE",
"452 367 LINE",
"442 456 OFFCURVE",
"364 530 OFFCURVE",
"254 530 CURVE SMOOTH",
"124 530 OFFCURVE",
"53 473 OFFCURVE",
"53 387 CURVE SMOOTH",
"53 281 OFFCURVE",
"146 258 OFFCURVE",
"250 236 CURVE SMOOTH",
"362 212 OFFCURVE",
"386 181 OFFCURVE",
"386 139 CURVE SMOOTH",
"386 85 OFFCURVE",
"335 55 OFFCURVE",
"256 55 CURVE SMOOTH",
"178 55 OFFCURVE",
"134 88 OFFCURVE",
"123 156 CURVE",
"38 156 LINE",
"50 62 OFFCURVE",
"127 -16 OFFCURVE",
"254 -16 CURVE SMOOTH"
);
}
);
width = 506;
}
);
leftMetricsKey = o;
rightMetricsKey = o;
unicode = 0073;
},
{
glyphname = germandbls;
lastChange = "2022-04-13 11:06:53 +0000";
layers = (
{
layerId = "9DF75A15-0AF9-4389-BE6D-DBD1DB18A6A2";
paths = (
{
closed = 1;
nodes = (
"160 0 LINE",
"160 528 LINE SMOOTH",
"160 596 OFFCURVE",
"211 656 OFFCURVE",
"280 656 CURVE SMOOTH",
"361 656 OFFCURVE",
"409 603 OFFCURVE",
"409 537 CURVE SMOOTH",
"409 471 OFFCURVE",
"359 416 OFFCURVE",
"266 416 CURVE SMOOTH",
"260 416 LINE",
"260 345 LINE",
"283 345 LINE SMOOTH",
"385 345 OFFCURVE",
"445 277 OFFCURVE",
"445 201 CURVE SMOOTH",
"445 124 OFFCURVE",
"397 62 OFFCURVE",
"312 62 CURVE SMOOTH",
"265 62 OFFCURVE",
"253 68 OFFCURVE",
"253 68 CURVE",
"253 -9 LINE",
"253 -9 OFFCURVE",
"273 -15 OFFCURVE",
"326 -15 CURVE SMOOTH",
"457 -15 OFFCURVE",
"531 82 OFFCURVE",
"531 201 CURVE SMOOTH",
"531 294 OFFCURVE",
"476 359 OFFCURVE",
"389 383 CURVE",
"456 408 OFFCURVE",
"495 463 OFFCURVE",
"495 537 CURVE SMOOTH",
"495 644 OFFCURVE",
"408 731 OFFCURVE",
"280 731 CURVE SMOOTH",
"151 731 OFFCURVE",
"75 637 OFFCURVE",
"75 533 CURVE SMOOTH",
"76 0 LINE"
);
}
);
width = 569;
}
);
leftMetricsKey = H;
rightMetricsKey = o;
unicode = 00DF;
},
{
glyphname = t;
lastChange = "2022-03-25 09:08:15 +0000";
layers = (
{
layerId = "9DF75A15-0AF9-4389-BE6D-DBD1DB18A6A2";
paths = (
{
closed = 1;
nodes = (
"120 21 OFFCURVE",
"167 -3 OFFCURVE",
"234 -3 CURVE SMOOTH",
"277 -3 OFFCURVE",
"298 0 OFFCURVE",
"298 0 CURVE",
"298 67 LINE",
"298 67 OFFCURVE",
"257 65 OFFCURVE",
"242 67 CURVE SMOOTH",
"215 71 OFFCURVE",
"198 72 OFFCURVE",
"198 131 CURVE SMOOTH",
"198 362 LINE SMOOTH",
"198 391 OFFCURVE",
"198 451 OFFCURVE",
"198 451 CURVE SMOOTH",
"198 451 OFFCURVE",
"225 450 OFFCURVE",
"240 450 CURVE SMOOTH",
"299 450 LINE",
"299 517 LINE",
"240 517 LINE SMOOTH",
"225 517 OFFCURVE",
"197 516 OFFCURVE",
"197 516 CURVE",
"198 632 LINE",
"198 656 LINE",
"117 656 LINE",
"117 632 LINE",
"118 516 LINE",
"118 516 OFFCURVE",
"88 517 OFFCURVE",
"73 517 CURVE SMOOTH",
"35 517 LINE",
"35 450 LINE",
"73 450 LINE SMOOTH",
"88 450 OFFCURVE",
"117 451 OFFCURVE",
"117 451 CURVE SMOOTH",
"117 451 OFFCURVE",
"117 392 OFFCURVE",
"117 362 CURVE SMOOTH",
"117 91 LINE"
);
}
);
width = 334;
}
);
leftMetricsKey = f;
rightMetricsKey = f;
unicode = 0074;
},
{
glyphname = u;
lastChange = "2022-03-25 08:15:25 +0000";
layers = (
{
layerId = "9DF75A15-0AF9-4389-BE6D-DBD1DB18A6A2";
paths = (
{
closed = 1;
nodes = (
"333 -14 OFFCURVE",
"383 35 OFFCURVE",
"404 69 CURVE",
"404 0 LINE",
"485 0 LINE",
"485 517 LINE",
"404 517 LINE",
"404 175 LINE SMOOTH",
"404 119 OFFCURVE",
"343 56 OFFCURVE",
"275 56 CURVE SMOOTH",
"194 56 OFFCURVE",
"154 91 OFFCURVE",
"154 189 CURVE SMOOTH",
"154 517 LINE",
"73 517 LINE",
"73 164 LINE SMOOTH",
"73 46 OFFCURVE",
"147 -14 OFFCURVE",
"250 -14 CURVE SMOOTH"
);
}
);
width = 558;
}
);
leftMetricsKey = n;
rightMetricsKey = n;
unicode = 0075;
},
{
glyphname = v;
lastChange = "2022-03-25 08:34:28 +0000";
layers = (
{
guideLines = (
{
position = "{117, 210}";
}
);
hints = (
{
horizontal = 1;
place = "{2, 81}";
type = Stem;
}
);
layerId = "9DF75A15-0AF9-4389-BE6D-DBD1DB18A6A2";
paths = (
{
closed = 1;
nodes = (
"289 2 LINE",
"470 517 LINE",
"385 517 LINE SMOOTH",
"385 517 OFFCURVE",
"316 312 OFFCURVE",
"285 209 CURVE SMOOTH",
"246 81 LINE",
"206 211 LINE SMOOTH",
"174 315 OFFCURVE",
"108 517 OFFCURVE",
"108 517 CURVE SMOOTH",
"23 517 LINE",
"203 2 LINE"
);
}
);
width = 493;
}
);
unicode = 0076;
},
{
glyphname = w;
lastChange = "2022-03-25 08:15:25 +0000";
layers = (
{
hints = (
{
horizontal = 1;
place = "{0, 81}";
type = Stem;
},
{
horizontal = 1;
place = "{517, -81}";
type = Stem;
}
);
layerId = "9DF75A15-0AF9-4389-BE6D-DBD1DB18A6A2";
paths = (
{
closed = 1;
nodes = (
"279 0 LINE",
"407 436 LINE",
"534 0 LINE",
"620 0 LINE",
"791 517 LINE",
"706 517 LINE SMOOTH",
"706 517 OFFCURVE",
"640 311 OFFCURVE",
"612 208 CURVE SMOOTH",
"601 165 OFFCURVE",
"578 80 OFFCURVE",
"578 80 CURVE SMOOTH",
"578 80 OFFCURVE",
"552 163 OFFCURVE",
"541 206 CURVE SMOOTH",
"513 313 OFFCURVE",
"449 517 OFFCURVE",
"449 517 CURVE SMOOTH",
"364 517 LINE SMOOTH",
"364 517 OFFCURVE",
"298 312 OFFCURVE",
"271 208 CURVE SMOOTH",
"260 165 OFFCURVE",
"236 80 OFFCURVE",
"236 80 CURVE SMOOTH",
"236 80 OFFCURVE",
"213 166 OFFCURVE",
"200 210 CURVE SMOOTH",
"171 314 OFFCURVE",
"108 517 OFFCURVE",
"108 517 CURVE SMOOTH",
"23 517 LINE",
"193 0 LINE"
);
}
);
width = 814;
}
);
leftMetricsKey = v;
rightMetricsKey = v;
unicode = 0077;
},
{
glyphname = x;
lastChange = "2022-03-25 09:51:42 +0000";
layers = (
{
layerId = "9DF75A15-0AF9-4389-BE6D-DBD1DB18A6A2";
paths = (
{
closed = 1;
nodes = (
"113 0 LINE",
"204 130 LINE SMOOTH",
"219 151 OFFCURVE",
"234 174 OFFCURVE",
"249 195 CURVE",
"294 129 LINE",
"385 0 LINE",
"475 0 LINE",
"337 198 LINE SMOOTH",
"323 218 OFFCURVE",
"306 239 OFFCURVE",
"292 259 CURVE",
"306 279 OFFCURVE",
"323 300 OFFCURVE",
"337 320 CURVE SMOOTH",
"475 517 LINE",
"385 517 LINE",
"293 385 LINE SMOOTH",
"278 364 OFFCURVE",
"264 342 OFFCURVE",
"249 321 CURVE",
"234 342 OFFCURVE",
"220 364 OFFCURVE",
"205 385 CURVE SMOOTH",
"113 517 LINE",
"23 517 LINE",
"165 315 LINE SMOOTH",
"178 296 OFFCURVE",
"193 278 OFFCURVE",
"206 259 CURVE",
"166 204 LINE",
"23 0 LINE"
);
}
);
width = 498;
}
);
leftMetricsKey = v;
rightMetricsKey = v;
unicode = 0078;
},
{
glyphname = y;
lastChange = "2022-03-25 09:51:21 +0000";
layers = (
{
layerId = "9DF75A15-0AF9-4389-BE6D-DBD1DB18A6A2";
paths = (
{
closed = 1;
nodes = (
"180 -59 LINE SMOOTH",
"164 -102 OFFCURVE",
"151 -107 OFFCURVE",
"124 -111 CURVE SMOOTH",
"109 -113 OFFCURVE",
"68 -111 OFFCURVE",
"68 -111 CURVE",
"68 -178 LINE",
"68 -178 OFFCURVE",
"89 -181 OFFCURVE",
"132 -181 CURVE SMOOTH",
"201 -181 OFFCURVE",
"240 -132 OFFCURVE",
"267 -67 CURVE",
"470 517 LINE",
"385 517 LINE SMOOTH",
"385 517 OFFCURVE",
"316 312 OFFCURVE",
"285 209 CURVE SMOOTH",
"246 81 LINE",
"206 211 LINE SMOOTH",
"174 315 OFFCURVE",
"108 517 OFFCURVE",
"108 517 CURVE SMOOTH",
"23 517 LINE",
"203 2 LINE"
);
}
);
width = 493;
}
);
leftMetricsKey = v;
rightMetricsKey = v;
unicode = 0079;
},
{
glyphname = z;
lastChange = "2022-04-13 11:06:09 +0000";
layers = (
{
layerId = "9DF75A15-0AF9-4389-BE6D-DBD1DB18A6A2";
paths = (
{
closed = 1;
nodes = (
"429 67 LINE",
"112 67 LINE SMOOTH",
"112 67 OFFCURVE",
"161 126 OFFCURVE",
"184 154 CURVE SMOOTH",
"424 452 LINE",
"424 517 LINE",
"48 517 LINE",
"48 450 LINE",
"335 450 LINE",
"335 450 OFFCURVE",
"293 401 OFFCURVE",
"275 378 CURVE SMOOTH",
"23 65 LINE",
"23 1 LINE",
"429 0 LINE"
);
}
);
width = 452;
}
);
leftMetricsKey = v;
rightMetricsKey = v;
unicode = 007A;
},
{
glyphname = zero;
lastChange = "2022-03-25 10:42:58 +0000";
layers = (
{
layerId = "9DF75A15-0AF9-4389-BE6D-DBD1DB18A6A2";
paths = (
{
closed = 1;
nodes = (
"498 -15 OFFCURVE",
"598 102 OFFCURVE",
"598 357 CURVE SMOOTH",
"598 613 OFFCURVE",
"498 730 OFFCURVE",
"337 730 CURVE SMOOTH",
"178 730 OFFCURVE",
"75 613 OFFCURVE",
"75 357 CURVE SMOOTH",
"75 102 OFFCURVE",
"178 -15 OFFCURVE",
"337 -15 CURVE SMOOTH"
);
},
{
closed = 1;
nodes = (
"162 567 OFFCURVE",
"229 655 OFFCURVE",
"338 655 CURVE SMOOTH",
"447 655 OFFCURVE",
"511 567 OFFCURVE",
"511 356 CURVE SMOOTH",
"511 147 OFFCURVE",
"447 60 OFFCURVE",
"338 60 CURVE SMOOTH",
"229 60 OFFCURVE",
"162 147 OFFCURVE",
"162 356 CURVE SMOOTH"
);
}
);
width = 673;
}
);
unicode = 0030;
},
{
glyphname = one;
lastChange = "2022-03-25 10:43:17 +0000";
layers = (
{
layerId = "9DF75A15-0AF9-4389-BE6D-DBD1DB18A6A2";
paths = (
{
closed = 1;
nodes = (
"269 0 LINE",
"269 715 LINE",
"184 715 LINE",
"184 634 OFFCURVE",
"92 589 OFFCURVE",
"37 589 CURVE",
"37 531 LINE",
"184 531 LINE",
"184 0 LINE"
);
}
);
width = 393;
}
);
unicode = 0031;
},
{
glyphname = two;
lastChange = "2022-03-25 10:44:46 +0000";
layers = (
{
layerId = "9DF75A15-0AF9-4389-BE6D-DBD1DB18A6A2";
paths = (
{
closed = 1;
nodes = (
"545 0 LINE",
"545 71 LINE",
"190 71 LINE",
"221 205 OFFCURVE",
"344 238 OFFCURVE",
"479 390 CURVE SMOOTH",
"518 434 OFFCURVE",
"543 481 OFFCURVE",
"543 548 CURVE SMOOTH",
"543 650 OFFCURVE",
"450 732 OFFCURVE",
"314 732 CURVE SMOOTH",
"179 732 OFFCURVE",
"86 650 OFFCURVE",
"86 548 CURVE",
"171 548 LINE",
"171 606 OFFCURVE",
"225 657 OFFCURVE",
"314 657 CURVE SMOOTH",
"404 657 OFFCURVE",
"456 606 OFFCURVE",
"456 540 CURVE SMOOTH",
"456 515 OFFCURVE",
"450 471 OFFCURVE",
"415 430 CURVE SMOOTH",
"305 301 OFFCURVE",
"131 265 OFFCURVE",
"75 0 CURVE"
);
}
);
width = 600;
}
);
leftMetricsKey = zero;
unicode = 0032;
},
{
glyphname = three;
lastChange = "2022-03-25 10:45:02 +0000";
layers = (
{
guideLines = (
{
position = "{-46, 548}";
},
{
position = "{-46, 195}";
}
);
layerId = "9DF75A15-0AF9-4389-BE6D-DBD1DB18A6A2";
paths = (
{
closed = 1;
nodes = (
"462 -15 OFFCURVE",
"560 78 OFFCURVE",
"560 195 CURVE SMOOTH",
"560 281 OFFCURVE",
"509 355 OFFCURVE",
"427 389 CURVE",
"501 419 OFFCURVE",
"546 478 OFFCURVE",
"546 548 CURVE SMOOTH",
"546 650 OFFCURVE",
"453 732 OFFCURVE",
"317 732 CURVE SMOOTH",
"182 732 OFFCURVE",
"89 650 OFFCURVE",
"89 548 CURVE",
"174 548 LINE",
"174 610 OFFCURVE",
"232 660 OFFCURVE",
"317 660 CURVE SMOOTH",
"403 660 OFFCURVE",
"459 610 OFFCURVE",
"459 545 CURVE SMOOTH",
"459 482 OFFCURVE",
"413 426 OFFCURVE",
"327 426 CURVE SMOOTH",
"267 426 LINE",
"266 355 LINE",
"327 355 LINE SMOOTH",
"427 355 OFFCURVE",
"473 286 OFFCURVE",
"473 205 CURVE SMOOTH",
"473 124 OFFCURVE",
"417 60 OFFCURVE",
"317 60 CURVE SMOOTH",
"218 60 OFFCURVE",
"160 126 OFFCURVE",
"160 195 CURVE",
"75 195 LINE",
"75 78 OFFCURVE",
"173 -15 OFFCURVE",
"317 -15 CURVE SMOOTH"
);
}
);
width = 635;
}
);
leftMetricsKey = zero;
rightMetricsKey = zero;
unicode = 0033;
},
{
glyphname = four;
lastChange = "2022-03-25 10:45:57 +0000";
layers = (
{
layerId = "9DF75A15-0AF9-4389-BE6D-DBD1DB18A6A2";
paths = (
{
closed = 1;
nodes = (
"393 187 LINE",
"393 0 LINE",
"478 0 LINE",
"478 187 LINE",
"557 187 LINE",
"557 258 LINE",
"478 258 LINE",
"478 715 LINE",
"393 715 LINE",
"40 258 LINE",
"40 187 LINE"
);
},
{
closed = 1;
nodes = (
"393 594 LINE",
"393 258 LINE",
"137 258 LINE"
);
}
);
width = 612;
}
);
rightMetricsKey = two;
unicode = 0034;
},
{
glyphname = five;
lastChange = "2022-04-13 11:06:53 +0000";
layers = (
{
guideLines = (
{
position = "{-14, 333}";
},
{
position = "{22, 167}";
}
);
layerId = "9DF75A15-0AF9-4389-BE6D-DBD1DB18A6A2";
paths = (
{
closed = 1;
nodes = (
"453 -10 OFFCURVE",
"551 97 OFFCURVE",
"551 232 CURVE SMOOTH",
"551 366 OFFCURVE",
"453 473 OFFCURVE",
"310 473 CURVE SMOOTH",
"253 473 OFFCURVE",
"203 456 OFFCURVE",
"163 427 CURVE",
"191 644 LINE",
"530 644 LINE",
"530 715 LINE",
"124 715 LINE",
"75 333 LINE",
"160 327 LINE",
"188 368 OFFCURVE",
"232 398 OFFCURVE",
"292 398 CURVE SMOOTH",
"410 398 OFFCURVE",
"466 322 OFFCURVE",
"466 232 CURVE SMOOTH",
"466 141 OFFCURVE",
"410 65 OFFCURVE",
"310 65 CURVE SMOOTH",
"235 65 OFFCURVE",
"183 110 OFFCURVE",
"161 169 CURVE",
"76 166 LINE",
"103 64 OFFCURVE",
"190 -10 OFFCURVE",
"310 -10 CURVE SMOOTH"
);
}
);
width = 626;
}
);
leftMetricsKey = zero;
rightMetricsKey = zero;
unicode = 0035;
},
{
glyphname = six;
lastChange = "2022-03-25 10:47:35 +0000";
layers = (
{
layerId = "9DF75A15-0AF9-4389-BE6D-DBD1DB18A6A2";
paths = (
{
closed = 1;
nodes = (
"480 -15 OFFCURVE",
"578 92 OFFCURVE",
"578 226 CURVE SMOOTH",
"578 361 OFFCURVE",
"480 468 OFFCURVE",
"336 468 CURVE SMOOTH",
"257 468 OFFCURVE",
"198 435 OFFCURVE",
"155 382 CURVE",
"161 576 OFFCURVE",
"224 655 OFFCURVE",
"336 655 CURVE SMOOTH",
"416 655 OFFCURVE",
"485 615 OFFCURVE",
"495 520 CURVE",
"580 521 LINE",
"564 663 OFFCURVE",
"456 730 OFFCURVE",
"336 730 CURVE SMOOTH",
"175 730 OFFCURVE",
"75 613 OFFCURVE",
"75 358 CURVE SMOOTH",
"75 272 OFFCURVE",
"86 202 OFFCURVE",
"107 146 CURVE",
"118 112 OFFCURVE",
"137 81 OFFCURVE",
"161 56 CURVE SMOOTH",
"205 8 OFFCURVE",
"265 -15 OFFCURVE",
"336 -15 CURVE SMOOTH"
);
},
{
closed = 1;
nodes = (
"175 320 OFFCURVE",
"233 393 OFFCURVE",
"335 393 CURVE SMOOTH",
"439 393 OFFCURVE",
"491 320 OFFCURVE",
"491 226 CURVE SMOOTH",
"491 133 OFFCURVE",
"439 60 OFFCURVE",
"335 60 CURVE SMOOTH",
"233 60 OFFCURVE",
"175 133 OFFCURVE",
"175 226 CURVE SMOOTH"
);
}
);
width = 655;
}
);
leftMetricsKey = zero;
rightMetricsKey = zero;
unicode = 0036;
},
{
glyphname = seven;
lastChange = "2022-04-13 11:06:53 +0000";
layers = (
{
layerId = "9DF75A15-0AF9-4389-BE6D-DBD1DB18A6A2";
paths = (
{
closed = 1;
nodes = (
"205 0 LINE",
"213 305 OFFCURVE",
"383 495 OFFCURVE",
"577 646 CURVE",
"577 715 LINE",
"37 715 LINE",
"37 644 LINE",
"472 644 LINE",
"286 506 OFFCURVE",
"120 252 OFFCURVE",
"120 0 CURVE"
);
}
);
width = 577;
}
);
leftMetricsKey = one;
unicode = 0037;
},
{
glyphname = eight;
lastChange = "2022-03-25 10:49:23 +0000";
layers = (
{
layerId = "9DF75A15-0AF9-4389-BE6D-DBD1DB18A6A2";
paths = (
{
closed = 1;
nodes = (
"478 -15 OFFCURVE",
"580 82 OFFCURVE",
"580 204 CURVE SMOOTH",
"580 294 OFFCURVE",
"526 370 OFFCURVE",
"438 404 CURVE",
"505 434 OFFCURVE",
"545 490 OFFCURVE",
"545 555 CURVE SMOOTH",
"545 653 OFFCURVE",
"457 731 OFFCURVE",
"327 731 CURVE SMOOTH",
"198 731 OFFCURVE",
"110 653 OFFCURVE",
"110 555 CURVE SMOOTH",
"110 490 OFFCURVE",
"150 434 OFFCURVE",
"216 404 CURVE",
"129 370 OFFCURVE",
"75 295 OFFCURVE",
"75 204 CURVE SMOOTH",
"75 82 OFFCURVE",
"177 -15 OFFCURVE",
"327 -15 CURVE SMOOTH"
);
},
{
closed = 1;
nodes = (
"162 302 OFFCURVE",
"221 370 OFFCURVE",
"327 370 CURVE SMOOTH",
"434 370 OFFCURVE",
"493 302 OFFCURVE",
"493 214 CURVE SMOOTH",
"493 129 OFFCURVE",
"434 60 OFFCURVE",
"327 60 CURVE SMOOTH",
"221 60 OFFCURVE",
"162 129 OFFCURVE",
"162 214 CURVE SMOOTH"
);
},
{
closed = 1;
nodes = (
"197 609 OFFCURVE",
"243 656 OFFCURVE",
"327 656 CURVE SMOOTH",
"412 656 OFFCURVE",
"458 609 OFFCURVE",
"458 548 CURVE SMOOTH",
"458 488 OFFCURVE",
"412 441 OFFCURVE",
"327 441 CURVE SMOOTH",
"243 441 OFFCURVE",
"197 488 OFFCURVE",
"197 548 CURVE SMOOTH"
);
}
);
width = 655;
}
);
leftMetricsKey = zero;
rightMetricsKey = zero;
unicode = 0038;
},
{
glyphname = nine;
lastChange = "2022-03-25 10:48:14 +0000";
layers = (
{
guideLines = (
{
position = "{682, 194}";
},
{
position = "{682, 247}";
}
);
layerId = "9DF75A15-0AF9-4389-BE6D-DBD1DB18A6A2";
paths = (
{
closed = 1;
nodes = (
"175 753 OFFCURVE",
"77 646 OFFCURVE",
"77 512 CURVE SMOOTH",
"77 377 OFFCURVE",
"175 270 OFFCURVE",
"319 270 CURVE SMOOTH",
"398 270 OFFCURVE",
"457 303 OFFCURVE",
"500 356 CURVE",
"494 162 OFFCURVE",
"431 83 OFFCURVE",
"319 83 CURVE SMOOTH",
"239 83 OFFCURVE",
"170 123 OFFCURVE",
"160 218 CURVE",
"75 217 LINE",
"91 75 OFFCURVE",
"199 8 OFFCURVE",
"319 8 CURVE SMOOTH",
"480 8 OFFCURVE",
"580 125 OFFCURVE",
"580 380 CURVE SMOOTH",
"580 466 OFFCURVE",
"569 536 OFFCURVE",
"548 592 CURVE",
"537 626 OFFCURVE",
"518 657 OFFCURVE",
"494 682 CURVE SMOOTH",
"450 730 OFFCURVE",
"390 753 OFFCURVE",
"319 753 CURVE SMOOTH"
);
},
{
closed = 1;
nodes = (
"480 418 OFFCURVE",
"422 345 OFFCURVE",
"320 345 CURVE SMOOTH",
"216 345 OFFCURVE",
"164 418 OFFCURVE",
"164 512 CURVE SMOOTH",
"164 605 OFFCURVE",
"216 678 OFFCURVE",
"320 678 CURVE SMOOTH",
"422 678 OFFCURVE",
"480 605 OFFCURVE",
"480 512 CURVE SMOOTH"
);
}
);
width = 655;
}
);
leftMetricsKey = zero;
rightMetricsKey = zero;
unicode = 0039;
},
{
glyphname = fraction;
lastChange = "2022-04-13 11:06:53 +0000";
layers = (
{
layerId = "9DF75A15-0AF9-4389-BE6D-DBD1DB18A6A2";
paths = (
{
closed = 1;
nodes = (
"75 -16 LINE",
"162 -16 LINE",
"597 732 LINE",
"510 732 LINE"
);
}
);
width = 672;
}
);
leftMetricsKey = H;
rightMetricsKey = H;
unicode = 2044;
},
{
glyphname = comma;
lastChange = "2022-03-25 08:15:25 +0000";
layers = (
{
layerId = "9DF75A15-0AF9-4389-BE6D-DBD1DB18A6A2";
paths = (
{
closed = 1;
nodes = (
"129 -123 OFFCURVE",
"178 -83 OFFCURVE",
"178 29 CURVE SMOOTH",
"178 50 LINE SMOOTH",
"178 79 OFFCURVE",
"155 103 OFFCURVE",
"125 103 CURVE SMOOTH",
"95 103 OFFCURVE",
"73 80 OFFCURVE",
"73 51 CURVE SMOOTH",
"73 23 OFFCURVE",
"95 0 OFFCURVE",
"125 0 CURVE SMOOTH",
"126 0 LINE",
"126 -2 LINE SMOOTH",
"126 -59 OFFCURVE",
"88 -77 OFFCURVE",
"75 -77 CURVE",
"75 -123 LINE"
);
}
);
width = 251;
}
);
leftMetricsKey = n;
rightMetricsKey = n;
unicode = 002C;
},
{
glyphname = exclam;
lastChange = "2022-04-13 11:06:53 +0000";
layers = (
{
components = (
{
name = dotaccentcomb;
transform = "{1, 0, 0, 1, 72, -619}";
}
);
layerId = "9DF75A15-0AF9-4389-BE6D-DBD1DB18A6A2";
paths = (
{
closed = 1;
nodes = (
"164 199 LINE",
"164 716 LINE",
"79 716 LINE",
"79 199 LINE"
);
}
);
width = 248;
}
);
leftMetricsKey = H;
rightMetricsKey = H;
unicode = 0021;
},
{
glyphname = exclamdown;
lastChange = "2022-04-13 07:08:31 +0000";
layers = (
{
components = (
{
name = dotaccentcomb;
transform = "{-1, 0, 0, -1, 173, 1169}";
}
);
layerId = "9DF75A15-0AF9-4389-BE6D-DBD1DB18A6A2";
paths = (
{
closed = 1;
nodes = (
"81 351 LINE",
"81 -166 LINE",
"166 -166 LINE",
"166 351 LINE"
);
}
);
width = 248;
}
);
leftMetricsKey = H;
rightMetricsKey = H;
unicode = 00A1;
},
{
glyphname = question;
lastChange = "2022-04-13 07:09:18 +0000";
layers = (
{
components = (
{
name = dotaccentcomb;
transform = "{1, 0, 0, 1, 236, -621}";
}
);
layerId = "9DF75A15-0AF9-4389-BE6D-DBD1DB18A6A2";
paths = (
{
closed = 1;
nodes = (
"321 193 LINE",
"321 256 OFFCURVE",
"334 301 OFFCURVE",
"399 345 CURVE SMOOTH",
"447 377 OFFCURVE",
"514 443 OFFCURVE",
"514 532 CURVE SMOOTH",
"514 648 OFFCURVE",
"432 728 OFFCURVE",
"301 728 CURVE SMOOTH",
"178 728 OFFCURVE",
"75 648 OFFCURVE",
"75 498 CURVE",
"156 498 LINE",
"155 613 OFFCURVE",
"228 653 OFFCURVE",
"301 653 CURVE SMOOTH",
"384 653 OFFCURVE",
"427 602 OFFCURVE",
"427 544 CURVE SMOOTH",
"427 477 OFFCURVE",
"405 434 OFFCURVE",
"342 390 CURVE SMOOTH",
"276 344 OFFCURVE",
"236 277 OFFCURVE",
"236 193 CURVE"
);
}
);
width = 589;
}
);
leftMetricsKey = H;
rightMetricsKey = H;
unicode = 003F;
},
{
glyphname = questiondown;
lastChange = "2022-04-13 07:09:24 +0000";
layers = (
{
components = (
{
name = dotaccentcomb;
transform = "{-1, 0, 0, -1, 353, 1166}";
}
);
layerId = "9DF75A15-0AF9-4389-BE6D-DBD1DB18A6A2";
paths = (
{
closed = 1;
nodes = (
"268 352 LINE",
"268 289 OFFCURVE",
"255 244 OFFCURVE",
"190 200 CURVE SMOOTH",
"142 168 OFFCURVE",
"75 102 OFFCURVE",
"75 13 CURVE SMOOTH",
"75 -103 OFFCURVE",
"157 -183 OFFCURVE",
"288 -183 CURVE SMOOTH",
"411 -183 OFFCURVE",
"514 -103 OFFCURVE",
"514 47 CURVE",
"433 47 LINE",
"434 -68 OFFCURVE",
"361 -108 OFFCURVE",
"288 -108 CURVE SMOOTH",
"205 -108 OFFCURVE",
"162 -57 OFFCURVE",
"162 1 CURVE SMOOTH",
"162 68 OFFCURVE",
"184 111 OFFCURVE",
"247 155 CURVE SMOOTH",
"313 201 OFFCURVE",
"353 268 OFFCURVE",
"353 352 CURVE"
);
}
);
width = 589;
}
);
leftMetricsKey = H;
rightMetricsKey = H;
unicode = 00BF;
},
{
glyphname = asterisk;
lastChange = "2022-04-13 07:59:30 +0000";
layers = (
{
layerId = "9DF75A15-0AF9-4389-BE6D-DBD1DB18A6A2";
paths = (
{
closed = 1;
nodes = (
"192 705 LINE",
"192 400 LINE",
"252 400 LINE",
"252 705 LINE"
);
},
{
closed = 1;
nodes = (
"339 655 LINE",
"75 503 LINE",
"105 451 LINE",
"369 603 LINE"
);
},
{
closed = 1;
nodes = (
"369 503 LINE",
"105 655 LINE",
"75 603 LINE",
"339 451 LINE"
);
}
);
width = 444;
}
);
leftMetricsKey = H;
rightMetricsKey = H;
unicode = 002A;
},
{
glyphname = numbersign;
lastChange = "2022-04-13 07:40:40 +0000";
layers = (
{
layerId = "9DF75A15-0AF9-4389-BE6D-DBD1DB18A6A2";
paths = (
{
closed = 1;
nodes = (
"173 382 LINE",
"92 382 LINE",
"93 315 LINE",
"162 315 LINE",
"142 202 LINE",
"61 202 LINE",
"61 135 LINE",
"131 135 LINE",
"107 0 LINE",
"181 0 LINE",
"205 135 LINE",
"329 135 LINE",
"305 0 LINE",
"379 0 LINE",
"403 135 LINE",
"484 135 LINE",
"483 202 LINE",
"414 202 LINE",
"434 315 LINE",
"515 315 LINE",
"514 382 LINE",
"445 382 LINE",
"470 518 LINE",
"396 518 LINE",
"371 382 LINE",
"247 382 LINE",
"272 518 LINE",
"198 518 LINE"
);
},
{
closed = 1;
nodes = (
"236 315 LINE",
"360 315 LINE",
"340 202 LINE",
"216 202 LINE"
);
}
);
width = 600;
}
);
unicode = 0023;
},
{
glyphname = parenleft;
lastChange = "2022-04-13 07:48:27 +0000";
layers = (
{
layerId = "9DF75A15-0AF9-4389-BE6D-DBD1DB18A6A2";
paths = (
{
closed = 1;
nodes = (
"147 0 OFFCURVE",
"75 177 OFFCURVE",
"75 357 CURVE SMOOTH",
"75 538 OFFCURVE",
"147 715 OFFCURVE",
"318 775 CURVE",
"317 691 LINE",
"196 631 OFFCURVE",
"163 486 OFFCURVE",
"163 356 CURVE SMOOTH",
"163 229 OFFCURVE",
"196 84 OFFCURVE",
"317 24 CURVE",
"318 -60 LINE"
);
}
);
width = 393;
}
);
leftMetricsKey = H;
rightMetricsKey = H;
unicode = 0028;
},
{
glyphname = braceleft;
lastChange = "2022-04-13 07:53:49 +0000";
layers = (
{
guideLines = (
{
position = "{64, 358}";
}
);
layerId = "9DF75A15-0AF9-4389-BE6D-DBD1DB18A6A2";
paths = (
{
closed = 1;
nodes = (
"174 461 LINE SMOOTH",
"174 381 OFFCURVE",
"112 391 OFFCURVE",
"75 391 CURVE",
"75 324 LINE",
"112 324 OFFCURVE",
"174 334 OFFCURVE",
"174 254 CURVE SMOOTH",
"174 66 LINE SMOOTH",
"174 3 OFFCURVE",
"210 -52 OFFCURVE",
"289 -58 CURVE SMOOTH",
"323 -61 OFFCURVE",
"354 -58 OFFCURVE",
"354 -58 CURVE",
"354 9 LINE",
"317 9 OFFCURVE",
"256 -1 OFFCURVE",
"255 79 CURVE",
"255 267 LINE SMOOTH",
"255 311 OFFCURVE",
"238 341 OFFCURVE",
"200 358 CURVE",
"238 374 OFFCURVE",
"255 404 OFFCURVE",
"255 448 CURVE SMOOTH",
"255 637 LINE SMOOTH",
"255 717 OFFCURVE",
"317 707 OFFCURVE",
"354 707 CURVE",
"354 774 LINE",
"354 774 OFFCURVE",
"323 777 OFFCURVE",
"289 774 CURVE SMOOTH",
"210 768 OFFCURVE",
"174 713 OFFCURVE",
"174 650 CURVE SMOOTH"
);
}
);
width = 429;
}
);
leftMetricsKey = H;
rightMetricsKey = H;
unicode = 007B;
},
{
glyphname = bracketleft;
lastChange = "2022-04-13 07:49:12 +0000";
layers = (
{
layerId = "9DF75A15-0AF9-4389-BE6D-DBD1DB18A6A2";
paths = (
{
closed = 1;
nodes = (
"260 1 LINE",
"260 72 LINE SMOOTH",
"260 72 OFFCURVE",
"160 70 OFFCURVE",
"160 70 CURVE",
"160 645 LINE",
"160 645 OFFCURVE",
"250 644 OFFCURVE",
"250 644 CURVE SMOOTH",
"250 715 LINE",
"75 715 LINE",
"75 1 LINE"
);
}
);
width = 335;
}
);
leftMetricsKey = H;
rightMetricsKey = H;
unicode = 005B;
},
{
glyphname = bracketright;
lastChange = "2022-04-13 07:03:22 +0000";
layers = (
{
layerId = "9DF75A15-0AF9-4389-BE6D-DBD1DB18A6A2";
paths = (
{
closed = 1;
nodes = (
"260 715 LINE",
"85 715 LINE",
"85 644 LINE SMOOTH",
"85 644 OFFCURVE",
"175 645 OFFCURVE",
"175 645 CURVE",
"175 70 LINE",
"175 70 OFFCURVE",
"75 72 OFFCURVE",
"75 72 CURVE SMOOTH",
"75 1 LINE",
"260 1 LINE"
);
}
);
width = 335;
}
);
leftMetricsKey = H;
rightMetricsKey = H;
unicode = 005D;
},
{
glyphname = endash;
lastChange = "2022-04-13 07:18:06 +0000";
layers = (
{
layerId = "9DF75A15-0AF9-4389-BE6D-DBD1DB18A6A2";
paths = (
{
closed = 1;
nodes = (
"496 221 LINE",
"496 292 LINE",
"75 292 LINE",
"75 221 LINE"
);
}
);
width = 571;
}
);
leftMetricsKey = H;
rightMetricsKey = H;
unicode = 2013;
},
{
glyphname = emdash;
lastChange = "2022-04-13 07:18:11 +0000";
layers = (
{
layerId = "9DF75A15-0AF9-4389-BE6D-DBD1DB18A6A2";
paths = (
{
closed = 1;
nodes = (
"773 218 LINE",
"773 289 LINE",
"75 289 LINE",
"75 218 LINE"
);
}
);
width = 848;
}
);
leftMetricsKey = H;
rightMetricsKey = H;
unicode = 2014;
},
{
glyphname = underscore;
lastChange = "2022-04-13 07:18:15 +0000";
layers = (
{
layerId = "9DF75A15-0AF9-4389-BE6D-DBD1DB18A6A2";
paths = (
{
closed = 1;
nodes = (
"496 -123 LINE",
"496 -52 LINE",
"75 -52 LINE",
"75 -123 LINE"
);
}
);
width = 571;
}
);
leftMetricsKey = H;
rightMetricsKey = H;
unicode = 005F;
},
{
glyphname = quoteleft;
lastChange = "2022-04-13 11:06:53 +0000";
layers = (
{
layerId = "9DF75A15-0AF9-4389-BE6D-DBD1DB18A6A2";
paths = (
{
closed = 1;
nodes = (
"121 556 LINE",
"131 612 OFFCURVE",
"145 745 OFFCURVE",
"145 745 CURVE",
"83 745 LINE",
"83 745 OFFCURVE",
"51 612 OFFCURVE",
"41 556 CURVE",
"32 505 LINE",
"112 505 LINE"
);
}
);
width = 177;
}
);
leftMetricsKey = quotecomb;
rightMetricsKey = quotecomb;
unicode = 2018;
},
{
glyphname = guilsinglleft;
lastChange = "2022-04-13 10:16:41 +0000";
layers = (
{
layerId = "9DF75A15-0AF9-4389-BE6D-DBD1DB18A6A2";
paths = (
{
closed = 1;
nodes = (
"23 217 LINE",
"364 435 LINE",
"364 517 LINE",
"23 300 LINE"
);
},
{
closed = 1;
nodes = (
"364 0 LINE",
"364 82 LINE",
"23 300 LINE",
"23 217 LINE"
);
}
);
width = 439;
}
);
leftMetricsKey = y;
rightMetricsKey = H;
unicode = 2039;
},
{
glyphname = at;
lastChange = "2022-04-13 11:06:53 +0000";
layers = (
{
layerId = "9DF75A15-0AF9-4389-BE6D-DBD1DB18A6A2";
paths = (
{
closed = 1;
nodes = (
"533 -110 OFFCURVE",
"605 -83 OFFCURVE",
"661 -37 CURVE",
"609 20 LINE",
"568 -16 OFFCURVE",
"512 -38 OFFCURVE",
"447 -38 CURVE SMOOTH",
"283 -38 OFFCURVE",
"155 94 OFFCURVE",
"155 263 CURVE SMOOTH",
"155 435 OFFCURVE",
"282 567 OFFCURVE",
"447 567 CURVE SMOOTH",
"617 567 OFFCURVE",
"740 435 OFFCURVE",
"740 304 CURVE",
"740 168 OFFCURVE",
"659 139 OFFCURVE",
"627 139 CURVE",
"606 138 OFFCURVE",
"589 148 OFFCURVE",
"593 180 CURVE",
"626 455 LINE",
"557 455 LINE",
"550 395 LINE",
"538 429 OFFCURVE",
"505 464 OFFCURVE",
"440 464 CURVE SMOOTH",
"360 464 OFFCURVE",
"280 390 OFFCURVE",
"265 266 CURVE SMOOTH",
"250 143 OFFCURVE",
"311 69 OFFCURVE",
"392 69 CURVE SMOOTH",
"456 69 OFFCURVE",
"498 104 OFFCURVE",
"518 138 CURVE",
"518 97 OFFCURVE",
"549 72 OFFCURVE",
"602 72 CURVE",
"745 72 OFFCURVE",
"820 184 OFFCURVE",
"820 303 CURVE",
"820 477 OFFCURVE",
"663 635 OFFCURVE",
"448 635 CURVE SMOOTH",
"237 635 OFFCURVE",
"75 478 OFFCURVE",
"75 262 CURVE SMOOTH",
"75 47 OFFCURVE",
"237 -110 OFFCURVE",
"448 -110 CURVE SMOOTH"
);
},
{
closed = 1;
nodes = (
"371 142 OFFCURVE",
"331 185 OFFCURVE",
"341 267 CURVE SMOOTH",
"351 348 OFFCURVE",
"401 390 OFFCURVE",
"449 390 CURVE SMOOTH",
"509 390 OFFCURVE",
"535 335 OFFCURVE",
"527 267 CURVE SMOOTH",
"518 197 OFFCURVE",
"479 142 OFFCURVE",
"418 142 CURVE SMOOTH"
);
}
);
width = 895;
}
);
leftMetricsKey = H;
rightMetricsKey = H;
unicode = 0040;
},
{
glyphname = dotaccentcomb;
lastChange = "2022-04-13 10:58:17 +0000";
layers = (
{
layerId = "9DF75A15-0AF9-4389-BE6D-DBD1DB18A6A2";
paths = (
{
closed = 1;
nodes = (
"3 642 OFFCURVE",
"24 621 OFFCURVE",
"52 621 CURVE SMOOTH",
"80 621 OFFCURVE",
"101 642 OFFCURVE",
"101 669 CURVE SMOOTH",
"101 696 OFFCURVE",
"80 717 OFFCURVE",
"52 717 CURVE SMOOTH",
"24 717 OFFCURVE",
"3 696 OFFCURVE",
"3 669 CURVE SMOOTH"
);
}
);
width = 104;
}
);
unicode = 0307;
},
{
glyphname = acutecomb;
lastChange = "2022-04-13 10:22:11 +0000";
layers = (
{
layerId = "9DF75A15-0AF9-4389-BE6D-DBD1DB18A6A2";
paths = (
{
closed = 1;
nodes = (
"124 650 LINE",
"159 683 OFFCURVE",
"188 716 OFFCURVE",
"188 716 CURVE",
"108 716 LINE",
"108 716 OFFCURVE",
"68 683 OFFCURVE",
"34 650 CURVE",
"0 617 LINE",
"91 617 LINE"
);
}
);
width = 188;
}
);
unicode = 0301;
},
{
glyphname = circumflexcomb;
lastChange = "2022-04-13 10:20:55 +0000";
layers = (
{
layerId = "9DF75A15-0AF9-4389-BE6D-DBD1DB18A6A2";
paths = (
{
closed = 1;
nodes = (
"102 716 LINE",
"165 617 LINE",
"228 617 LINE",
"165 716 LINE"
);
},
{
closed = 1;
nodes = (
"20 617 LINE",
"82 617 LINE",
"145 716 LINE",
"82 716 LINE"
);
}
);
width = 248;
}
);
unicode = 0302;
},
{
glyphname = strokeshortcomb;
lastChange = "2022-04-13 07:17:39 +0000";
layers = (
{
layerId = "9DF75A15-0AF9-4389-BE6D-DBD1DB18A6A2";
paths = (
{
closed = 1;
nodes = (
"355 221 LINE",
"355 292 LINE",
"75 292 LINE",
"75 221 LINE"
);
}
);
width = 430;
}
);
leftMetricsKey = H;
rightMetricsKey = H;
unicode = 0335;
},
{
glyphname = slashlongcomb;
lastChange = "2022-04-13 07:41:51 +0000";
layers = (
{
layerId = "9DF75A15-0AF9-4389-BE6D-DBD1DB18A6A2";
paths = (
{
closed = 1;
nodes = (
"75 -15 LINE",
"152 -15 LINE",
"284 731 LINE",
"207 731 LINE"
);
}
);
width = 359;
}
);
leftMetricsKey = H;
rightMetricsKey = H;
unicode = 0338;
},
{
export = 0;
glyphname = unbenannt;
lastChange = "2022-04-13 07:25:19 +0000";
layers = (
{
layerId = "9DF75A15-0AF9-4389-BE6D-DBD1DB18A6A2";
paths = (
{
closed = 1;
nodes = (
"187 191 OFFCURVE",
"200 192 OFFCURVE",
"200 192 CURVE",
"200 259 LINE",
"177 259 OFFCURVE",
"156 265 OFFCURVE",
"156 304 CURVE",
"75 291 LINE",
"75 226 OFFCURVE",
"113 191 OFFCURVE",
"180 191 CURVE SMOOTH"
);
}
);
width = 275;
}
);
leftMetricsKey = H;
rightMetricsKey = H;
},
{
glyphname = quotecomb;
lastChange = "2022-04-13 10:55:56 +0000";
layers = (
{
layerId = "9DF75A15-0AF9-4389-BE6D-DBD1DB18A6A2";
paths = (
{
closed = 1;
nodes = (
"32 690 LINE",
"32 636 OFFCURVE",
"40 510 OFFCURVE",
"40 510 CURVE",
"100 510 LINE",
"100 510 OFFCURVE",
"108 636 OFFCURVE",
"108 690 CURVE",
"108 738 LINE",
"32 738 LINE"
);
}
);
width = 140;
}
);
},
{
glyphname = istrokecomp;
lastChange = "2022-04-13 10:09:26 +0000";
layers = (
{
layerId = "9DF75A15-0AF9-4389-BE6D-DBD1DB18A6A2";
paths = (
{
closed = 1;
nodes = (
"154 0 LINE",
"154 517 LINE",
"73 517 LINE",
"73 0 LINE"
);
}
);
width = 227;
}
);
leftMetricsKey = n;
rightMetricsKey = n;
},
